<svg xmlns="http://www.w3.org/2000/svg" xmlns:xlink="http://www.w3.org/1999/xlink" width="298.12" height="35.585" viewBox="0 0 298.12 35.585">
  <defs>
    <clipPath id="clip-path">
      <rect id="Rectangle_2" data-name="Rectangle 2" width="298.12" height="35.585" fill="#272727"/>
    </clipPath>
  </defs>
  <g id="Group_4" data-name="Group 4" transform="translate(0 0)">
    <g id="Group_3" data-name="Group 3" transform="translate(0 0)" clip-path="url(#clip-path)">
      <path id="Path_1" data-name="Path 1" d="M0,34.711V.3H17.721a25.805,25.805,0,0,1,7.535.845,8.026,8.026,0,0,1,4.2,3.133,9.509,9.509,0,0,1,1.6,5.576,9.582,9.582,0,0,1-1.221,4.941,9.569,9.569,0,0,1-3.36,3.369,12.863,12.863,0,0,1-3.733,1.36,10.667,10.667,0,0,1,2.769,1.27,10.817,10.817,0,0,1,1.7,1.808A13.586,13.586,0,0,1,28.7,24.74l5.15,9.971H21.832L16.148,24.2a8.054,8.054,0,0,0-1.923-2.655,4.475,4.475,0,0,0-2.606-.8h-.939V34.711ZM10.679,14.243h4.485a16.014,16.014,0,0,0,2.816-.47,2.812,2.812,0,0,0,1.726-1.08,3.181,3.181,0,0,0,.669-2A3.162,3.162,0,0,0,19.318,8.14q-1.057-.892-3.966-.892H10.679Z" transform="translate(0 0.288)" fill="#272727"/>
      <path id="Path_2" data-name="Path 2" d="M18.862,17.817q0-8.429,4.694-13.121T36.63,0q8.591,0,13.239,4.614t4.649,12.92a21.207,21.207,0,0,1-2.031,9.895,14.463,14.463,0,0,1-5.87,6.009,19.382,19.382,0,0,1-9.564,2.148,22.007,22.007,0,0,1-9.636-1.855,14.5,14.5,0,0,1-6.185-5.868,19.5,19.5,0,0,1-2.369-10.045m10.632.045q0,5.212,1.937,7.488A6.548,6.548,0,0,0,36.7,27.628,6.562,6.562,0,0,0,42.007,25.4q1.875-2.231,1.876-8,0-4.86-1.959-7.1a6.7,6.7,0,0,0-5.318-2.242,6.465,6.465,0,0,0-5.164,2.276q-1.949,2.28-1.949,7.535" transform="translate(18.044 0.001)" fill="#272727"/>
      <path id="Path_3" data-name="Path 3" d="M63.8,20.914l9.319,2.818a17.238,17.238,0,0,1-2.958,6.549,12.82,12.82,0,0,1-5.013,3.966,18.691,18.691,0,0,1-7.615,1.338,22.108,22.108,0,0,1-9.167-1.63,14.514,14.514,0,0,1-6.136-5.735,19.437,19.437,0,0,1-2.583-10.509q0-8.538,4.541-13.125T57.042,0q6.5,0,10.223,2.628A15.459,15.459,0,0,1,72.793,10.7l-9.39,2.09a8.079,8.079,0,0,0-1.031-2.3,6.125,6.125,0,0,0-2.186-1.878,6.71,6.71,0,0,0-8.425,2.25q-1.456,2.16-1.454,6.776,0,5.72,1.736,7.842A5.954,5.954,0,0,0,56.924,27.6a5.931,5.931,0,0,0,4.614-1.712A10.619,10.619,0,0,0,63.8,20.914" transform="translate(37.93 0.002)" fill="#272727"/>
      <path id="Path_4" data-name="Path 4" d="M59.32.3H69.954v13L81.091.3H95.232L82.678,13.29,95.8,34.711H82.7L75.446,20.559l-5.492,5.754v8.4H59.32Z" transform="translate(56.748 0.288)" fill="#272727"/>
      <path id="Path_5" data-name="Path 5" d="M105.132,29.031H93.059l-1.675,5.68H80.527L93.46.3h11.6l12.929,34.411H106.854Zm-2.205-7.441-3.8-12.37L95.37,21.59Z" transform="translate(77.035 0.288)" fill="#272727"/>
      <path id="Path_6" data-name="Path 6" d="M102.237.3h19.9q4.975,0,7.641,2.465a7.988,7.988,0,0,1,2.665,6.1,7.7,7.7,0,0,1-1.9,5.234,8.47,8.47,0,0,1-3.71,2.3,9.642,9.642,0,0,1,5.457,3.062,8.426,8.426,0,0,1,1.749,5.457,9.381,9.381,0,0,1-1.244,4.813,9.174,9.174,0,0,1-3.4,3.381,11.242,11.242,0,0,1-4.038,1.125,46.515,46.515,0,0,1-4.764.47H102.237Zm10.726,13.5h4.624a5.31,5.31,0,0,0,3.461-.859,3.122,3.122,0,0,0,.974-2.475,2.946,2.946,0,0,0-.974-2.348,5.228,5.228,0,0,0-3.391-.843h-4.694Zm0,13.518h5.422a5.96,5.96,0,0,0,3.872-.972,3.285,3.285,0,0,0,1.127-2.618,3.044,3.044,0,0,0-1.115-2.454,6.247,6.247,0,0,0-3.909-.927h-5.4Z" transform="translate(97.804 0.287)" fill="#272727"/>
      <path id="Path_7" data-name="Path 7" d="M121.055.3h10.632V26.237h16.594v8.474H121.055Z" transform="translate(115.807 0.288)" fill="#272727"/>
      <path id="Path_8" data-name="Path 8" d="M137.535.3h28.5V7.647H148.19v5.469H164.74v7.018H148.19v6.784h18.357v7.793H137.535Z" transform="translate(131.571 0.288)" fill="#272727"/>
    </g>
  </g>
</svg>
