<svg xmlns="http://www.w3.org/2000/svg" xmlns:xlink="http://www.w3.org/1999/xlink" width="57.286" height="17.991" viewBox="0 0 57.286 17.991">
  <defs>
    <clipPath id="clip-path">
      <rect id="Rectangle_101" data-name="Rectangle 101" width="57.286" height="17.991" transform="translate(0 0)" fill="#272727"/>
    </clipPath>
  </defs>
  <g id="Group_982" data-name="Group 982" transform="translate(0 0)">
    <g id="Group_981" data-name="Group 981" transform="translate(0 0)" clip-path="url(#clip-path)">
      <path id="Path_837" data-name="Path 837" d="M56.9,1.423C50.3.095,43.837-.647,37.353.754c-1.892.41-7.641,2.32-8.71,2.329-1.07-.009-6.818-1.919-8.71-2.329C13.45-.647,6.986.095.385,1.423A.481.481,0,0,0,0,1.893v1.64C0,4.032.263,5.2,1.052,5.5A3.25,3.25,0,0,1,2.675,8.189a40.055,40.055,0,0,0,1.055,4.846,4.752,4.752,0,0,0,3.343,3.389,32.609,32.609,0,0,0,10.583,1.561,7.024,7.024,0,0,0,6.465-3.75,32.955,32.955,0,0,0,2.043-4.374,2.617,2.617,0,0,1,4.958,0,32.995,32.995,0,0,0,2.044,4.374,7.024,7.024,0,0,0,6.465,3.75,32.61,32.61,0,0,0,10.584-1.561,4.751,4.751,0,0,0,3.342-3.389,40,40,0,0,0,1.055-4.846A3.249,3.249,0,0,1,56.234,5.5c.789-.305,1.052-1.469,1.052-1.968V1.893a.48.48,0,0,0-.385-.47" transform="translate(0 0)" fill="#272727"/>
    </g>
  </g>
</svg>
