<svg xmlns="http://www.w3.org/2000/svg" xmlns:xlink="http://www.w3.org/1999/xlink" width="238.583" height="65.412" viewBox="0 0 238.583 65.412">
  <defs>
    <clipPath id="clip-path">
      <rect id="Rectangle_24" data-name="Rectangle 24" width="238.584" height="65.412" fill="#272727"/>
    </clipPath>
    <clipPath id="clip-path-2">
      <path id="Path_492" data-name="Path 492" d="M32.706,0A32.712,32.712,0,0,0,2.49,45.23L8.965,34.685H54.015l-8.166,13.3H3.788a32.708,32.708,0,0,0,59.135-27.8L56.447,30.728H11.4l8.167-13.3H61.624A32.7,32.7,0,0,0,32.706,0Z" fill="#272727"/>
    </clipPath>
  </defs>
  <g id="Group_922" data-name="Group 922" transform="translate(0 0)">
    <g id="Group_921" data-name="Group 921" transform="translate(0 0)">
      <g id="Group_920" data-name="Group 920" clip-path="url(#clip-path)">
        <path id="Path_485" data-name="Path 485" d="M55.167,36.878a10.262,10.262,0,0,0,3.775.843c2.861,0,3.3-1.868,3.3-4.692V14h3.483V32.845c0,3.152-.476,4.765-1.392,5.9a6.536,6.536,0,0,1-5.316,2.2,10.652,10.652,0,0,1-3.849-.769Z" transform="translate(21.406 5.434)" fill="#272727"/>
        <path id="Path_486" data-name="Path 486" d="M67.053,14H82.375v3.152H70.535v8.064H80.909v3.043H70.535V37.39h12.17v3.154H67.053Z" transform="translate(26.018 5.434)" fill="#272727"/>
        <path id="Path_487" data-name="Path 487" d="M87.625,35.157a13.882,13.882,0,0,0,8.028,2.712c3.152,0,5.388-1.43,5.388-4.325,0-3.41-3.116-4-6.6-4.986-3.739-1.063-7.368-2.6-7.368-7.441,0-4.691,3.409-7.405,8.578-7.405a14.991,14.991,0,0,1,7.624,1.979v3.667a14.167,14.167,0,0,0-7.7-2.457c-2.97,0-5.058,1.283-5.058,3.995,0,3.3,3.077,3.849,6.3,4.766,3.849,1.1,7.66,2.639,7.66,7.7,0,4.84-3.555,7.7-8.871,7.7a16.373,16.373,0,0,1-7.991-2.089Z" transform="translate(33.787 5.321)" fill="#272727"/>
        <path id="Path_488" data-name="Path 488" d="M115.224,13.712a13.338,13.338,0,0,1,13.49,13.673,13.491,13.491,0,1,1-26.98,0,13.338,13.338,0,0,1,13.49-13.673m0,24.121c5.792,0,10.008-4.619,10.008-10.448s-4.215-10.448-10.008-10.448-10.008,4.619-10.008,10.448,4.217,10.448,10.008,10.448" transform="translate(39.475 5.321)" fill="#272727"/>
        <path id="Path_489" data-name="Path 489" d="M124.371,14h3.483V37.39H140.39v3.154H124.371Z" transform="translate(48.258 5.434)" fill="#272727"/>
        <path id="Path_490" data-name="Path 490" d="M147.737,14h3.335l10.961,26.54H158.3l-2.97-7.405H143.376l-3.006,7.405h-3.556Zm-3.152,16.093h9.53l-2.161-5.5c-.844-2.126-1.724-4.4-2.53-6.563h-.074c-.806,2.164-1.686,4.4-2.6,6.672Z" transform="translate(53.086 5.433)" fill="#272727"/>
        <path id="Path_491" data-name="Path 491" d="M157.257,14h7.184c2.676,0,5.243.11,7.4,1.32a6.745,6.745,0,0,1,3.667,6.195,7.033,7.033,0,0,1-3.409,6.231,8.207,8.207,0,0,1-3.043,1.1l8.5,11.694h-4.217l-8.1-11.364h-4.51V40.543h-3.481Zm7.991,12.317c2.346,0,4-.294,5.205-1.21a3.9,3.9,0,0,0,1.577-3.3,4.106,4.106,0,0,0-2.163-3.775c-1.43-.769-3.116-.88-5.683-.88h-3.446V26.32Z" transform="translate(61.018 5.434)" fill="#272727"/>
      </g>
    </g>
    <g id="Group_923" data-name="Group 923" transform="translate(0 0)">
      <g id="Group_922-2" data-name="Group 922" clip-path="url(#clip-path-2)">
        <rect id="Rectangle_25" data-name="Rectangle 25" width="65.412" height="65.412" transform="translate(0 0)" fill="#272727"/>
      </g>
    </g>
  </g>
</svg>
