<svg id="Group_903" data-name="Group 903" xmlns="http://www.w3.org/2000/svg" xmlns:xlink="http://www.w3.org/1999/xlink" width="313.272" height="41.469" viewBox="0 0 313.272 41.469">
  <defs>
    <clipPath id="clip-path">
      <rect id="Rectangle_7" data-name="Rectangle 7" width="313.272" height="41.469" fill="#272727"/>
    </clipPath>
  </defs>
  <path id="Path_418" data-name="Path 418" d="M34.277,12.748v-2.4H23.861V3.9h11.9V1.5H20.877V22.077H36.007V19.689H23.861V12.748Z" transform="translate(119.14 8.562)" fill="#272727"/>
  <g id="Group_902" data-name="Group 902" transform="translate(0 0)">
    <g id="Group_901" data-name="Group 901" clip-path="url(#clip-path)">
      <path id="Path_419" data-name="Path 419" d="M48.079,14.853a6.818,6.818,0,0,0,3.9-6.284c0-4.883-3.682-7.069-7.331-7.069h-9.5V22.083h2.985V15.611h6.1l5.03,6.452h3.5L47.3,15.236Zm-3.937-1.63H38.133V3.9h6.009a4.45,4.45,0,0,1,4.715,4.688,4.521,4.521,0,0,1-4.715,4.634" transform="translate(200.586 8.56)" fill="#272727"/>
      <path id="Path_420" data-name="Path 420" d="M38.659,10.441H29.813V3.9H41.087V1.5H26.829V22.077h2.985V12.842h8.846Z" transform="translate(153.107 8.562)" fill="#272727"/>
      <path id="Path_421" data-name="Path 421" d="M59.544,16.676c0-2.73-1.455-4.219-5.2-5.325l-3.481-1.026c-1.442-.429-3.239-.952-3.239-3.172,0-.972.463-3.233,4.762-3.233a17.41,17.41,0,0,1,5.768,1.06l.228-2.4a16.523,16.523,0,0,0-6.3-1.127c-4.7,0-7.626,2.321-7.626,6.056,0,2.622,1.663,4.3,5.231,5.265l3.481.939c1.657.449,3.193,1.147,3.193,3.172s-1.858,3.293-4.849,3.293A21.6,21.6,0,0,1,44.722,18.9L44.5,21.344a20.855,20.855,0,0,0,7.4,1.335c4.567,0,7.639-2.408,7.639-6" transform="translate(253.728 8.28)" fill="#272727"/>
      <path id="Path_422" data-name="Path 422" d="M62.192,22.083V1.5H59.436l-8.6,10.215L42.2,1.5h-2.77V22.083h2.985V5.973l8.464,9.4,8.343-9.423V22.083Z" transform="translate(225.019 8.558)" fill="#272727"/>
      <path id="Path_423" data-name="Path 423" d="M41.189,1.451c-6.432,0-10.926,4.386-10.926,10.664,0,6.224,4.494,10.563,10.926,10.563s10.932-4.339,10.932-10.563c0-6.278-4.494-10.664-10.932-10.664M41.2,20a7.518,7.518,0,0,1-7.82-7.9A7.546,7.546,0,0,1,41.2,4.147a7.546,7.546,0,0,1,7.82,7.954c0,4.722-3.139,7.9-7.82,7.9" transform="translate(172.708 8.28)" fill="#272727"/>
      <path id="Path_424" data-name="Path 424" d="M21.06,22.405c2.093,0,8.913-.537,8.913-7.431V1.5H27.009V14.686c0,3.246-2.227,5.184-5.949,5.184-3.7,0-5.915-1.938-5.915-5.184V1.5H12.173V14.974c0,6.707,6.217,7.431,8.887,7.431" transform="translate(69.47 8.56)" fill="#272727"/>
      <path id="Path_425" data-name="Path 425" d="M24.92,8.589c0-4.9-3.675-7.089-7.311-7.089H8.126V22.083h2.985V15.611h6.5c4.306,0,7.311-2.891,7.311-7.022M11.111,13.224V3.9h6a4.446,4.446,0,0,1,4.7,4.688,4.517,4.517,0,0,1-4.7,4.634Z" transform="translate(46.374 8.56)" fill="#272727"/>
      <path id="Path_426" data-name="Path 426" d="M29.526,14.853a6.818,6.818,0,0,0,3.9-6.284c0-4.883-3.682-7.069-7.331-7.069H16.6V22.083H19.58V15.611h6.1l5.03,6.452h3.5l-5.466-6.828Zm-3.937-1.63H19.58V3.9h6.009A4.45,4.45,0,0,1,30.3,8.589a4.521,4.521,0,0,1-4.715,4.634" transform="translate(94.706 8.56)" fill="#272727"/>
      <path id="Path_427" data-name="Path 427" d="M23.078,0H0V31.489a2,2,0,1,0,3.991,0V3.991H23.078a7.374,7.374,0,1,1,0,14.748H13.36V13.36h10.3a2,2,0,0,0,0-3.991H9.37V39.477a2,2,0,0,0,3.991,0V22.73h9.718a11.365,11.365,0,0,0,0-22.73" transform="translate(0 0)" fill="#272727"/>
    </g>
  </g>
</svg>
