<svg id="Group_929" data-name="Group 929" xmlns="http://www.w3.org/2000/svg" xmlns:xlink="http://www.w3.org/1999/xlink" width="172" height="129.209" viewBox="0 0 172 129.209">
  <defs>
    <clipPath id="clip-path">
      <rect id="Rectangle_39" data-name="Rectangle 39" width="172" height="129.209" fill="#272727"/>
    </clipPath>
  </defs>
  <g id="Group_928" data-name="Group 928" transform="translate(0 0)" clip-path="url(#clip-path)">
    <path id="Path_538" data-name="Path 538" d="M122.42,112.125a2.052,2.052,0,0,1-.38-.029,2.343,2.343,0,0,1-1.518-1.01,7.453,7.453,0,0,1-1.3-3.868l-.058-.514-5.721-.733.051.785a14.314,14.314,0,0,0,1.071,4.786,10.709,10.709,0,0,0,2.532,3.724,9.64,9.64,0,0,0,4.846,2.425,10.452,10.452,0,0,0,2.034.214c.262,0,.5-.011.75-.034a5.353,5.353,0,0,0,3.63-1.778,7.936,7.936,0,0,0,1.835-5.433v-.144a10.241,10.241,0,0,0-.731-3.344l-.61.221.61-.232c-.2-.5-.442-1.057-.744-1.657a21.093,21.093,0,0,0-2.749-4.053c-.361-.462-1.077-1.237-2.17-2.362a20.034,20.034,0,0,1-2-2.31,7.7,7.7,0,0,1-1.705-4.3,3.192,3.192,0,0,1,.429-1.8,1,1,0,0,1,.912-.513,1.825,1.825,0,0,1,.364.039,2.193,2.193,0,0,1,1.452.878,5.87,5.87,0,0,1,.966,2.863l.053.567,5.758.1-.064-.716a10.869,10.869,0,0,0-1.086-4.007,9.115,9.115,0,0,0-2.4-3.071,10.122,10.122,0,0,0-4.545-2.107,9.869,9.869,0,0,0-1.84-.19,6.074,6.074,0,0,0-2.94.7c-2.13,1.188-3.181,3.447-3.171,6.39a11.22,11.22,0,0,0,1.1,4.822,24.4,24.4,0,0,0,3.375,4.826q2.759,3.17,4.139,4.746a6.368,6.368,0,0,1,1.594,3.747,2.665,2.665,0,0,1-.343,1.564,1.644,1.644,0,0,1-1.428.8m-16.5,1.825a6.269,6.269,0,0,0,4.055-1.438,6.465,6.465,0,0,0,2.388-5.294V91.082a10.045,10.045,0,0,0-7.838-9.469L96.429,79.99v32.222l7.843,1.569a7.96,7.96,0,0,0,1.626.168Zm-1.25-6.016-2.283-.461V87.265l2.031.409a2.484,2.484,0,0,1,1.482.931,2.514,2.514,0,0,1,.632,1.639V106.4a1.5,1.5,0,0,1-.534,1.241,1.317,1.317,0,0,1-.906.324,2.9,2.9,0,0,1-.422-.035m-16.676-4.509,1.085,7.315L95.335,112l-5.4-33.283-7.493-1.5-.118.659-5.356,30.444,6.128,1.228,1.132-6.869Zm-1.867-13.1.98,7.073L85.15,97ZM52.681,81.162,47.5,82.185v20.241l13.008,2.6V99.065l-7.059-1.4V81.013Zm23.87.861V76.464L62,79.328v26l.526.1,14.025,2.807v-6.01l-8.6-1.714v-7.1l6.286,1.252v-6.01L67.95,87.41V80.3ZM29.32,71.642V45.455l4.924-.971v-6L18.416,41.575v6l4.951-.966V72.8ZM8.223,70.02a1.262,1.262,0,0,1-.247.024A.813.813,0,0,1,7.7,70c-.613-.185-.916-.532-1.045-1.611l-.1-1.04-.072-.767L.794,68.132v1.234a6.753,6.753,0,0,0,2.165,5.278A5.854,5.854,0,0,0,7,76.187h.022a8.27,8.27,0,0,0,1.573-.157,9.445,9.445,0,0,0,5.6-3.359,9.893,9.893,0,0,0,2.316-6.461V59.565a8.647,8.647,0,0,0-1.4-5.387,4.413,4.413,0,0,0-3.634-1.651,8,8,0,0,0-1.521.156,5.548,5.548,0,0,0-1.762.652,7.621,7.621,0,0,0-.971.723V49.716l8.968-1.75v-6l-14.921,2.9v18.2l5.954-1.16V60.535a3.25,3.25,0,0,1,.42-1.566,1.891,1.891,0,0,1,1.38-.993,2.8,2.8,0,0,1,.4-.04.751.751,0,0,1,.422.1,1.712,1.712,0,0,1,.71,1.524v7.557c-.053,1.778-.664,2.523-2.33,2.9M129.5,52.1l6.083-1.184V18.7l-5.956,1.159v17.09l-5.091-16.1-.562.11-5.755,1.125v32.21l5.956-1.155V36.685ZM116.319,28.453v-6l-14.554,2.841V57.509l.772-.15,13.781-2.691v-6l-8.6,1.681v-7.1L114,42.019v-6.01L107.72,37.24V30.133Zm22.107-10.29V42.573a6.417,6.417,0,0,0,2.388,5.284,6.292,6.292,0,0,0,4.063,1.42h.031a8.848,8.848,0,0,0,1.658-.161,9.671,9.671,0,0,0,5.589-3.349,9.114,9.114,0,0,0,2.321-6.067V15.035l-6.148,1.2V40.594a2.461,2.461,0,0,1-.626,1.615,2.555,2.555,0,0,1-1.51.93,2.951,2.951,0,0,1-.427.035,1.46,1.46,0,0,1-.948-.317,1.442,1.442,0,0,1-.54-1.225v-24.6Zm33.446-.536V11.616l-14.549,2.842V46.673l.769-.151,13.78-2.69v-6l-8.6,1.675v-7.1l6.282-1.225V25.173l-6.282,1.23V19.3ZM36.7,38.007V70.194l5.951-1.156V55.961l4.322-.848V68.2l5.949-1.16V34.843L46.969,36V49.109l-4.322.849V36.846ZM86.623,60.465l6.84-1.333,5.859-33.341-6.253,1.223-3.355,21.31-3.328-20.01-6.166,1.2L85.98,60.587ZM69.765,31.558,64.3,64.818l6.212-1.212,1.131-7.32,3.75-.73,1.09,6.876,6.181-1.2L77.267,30.092Zm2.789,18.694.978-7.067.974,6.684ZM0,33.873v6.063L172,6.063V0ZM0,87.988,82.119,71.816l48.856,9.624V75.372L97.52,68.78,172,54.122V48.046L0,81.925Zm45.24,24.346,85.735,16.875v-6.063L45.24,106.26Z" transform="translate(0 0)" fill="#272727"/>
  </g>
</svg>
