<svg id="Group_898" data-name="Group 898" xmlns="http://www.w3.org/2000/svg" width="216.153" height="59.22" viewBox="0 0 216.153 59.22">
  <path id="Path_381" data-name="Path 381" d="M624.645,206.522a3.935,3.935,0,0,0-3.172-1.322,3.728,3.728,0,0,0-3.172,1.439,6.758,6.758,0,0,0-1.116,4.2V224.23a18.388,18.388,0,0,0-5.257-4.141,12.691,12.691,0,0,0-3.906-1.175,19.574,19.574,0,0,0-2.7-.176A13.859,13.859,0,0,0,594.4,223.5c-2.761,3.172-4.141,7.577-4.141,13.245a25.3,25.3,0,0,0,1.057,7.459,18.04,18.04,0,0,0,3.054,5.991,14.38,14.38,0,0,0,4.816,3.935,13.43,13.43,0,0,0,6.02,1.38,14.364,14.364,0,0,0,2.819-.264,11.071,11.071,0,0,0,1.7-.411,14.528,14.528,0,0,0,3.847-2,22.639,22.639,0,0,0,3.612-3.407v.881a5.642,5.642,0,0,0,1.2,3.847,4.259,4.259,0,0,0,6.167.059,5.651,5.651,0,0,0,1.2-3.906V210.369A5.891,5.891,0,0,0,624.645,206.522Zm-9.133,36.944a8.682,8.682,0,0,1-3.142,3.788,8.044,8.044,0,0,1-4.346,1.233h-.029a7.853,7.853,0,0,1-4.346-1.292,8.888,8.888,0,0,1-3.142-3.876,17.764,17.764,0,0,1-.059-12.393,9.019,9.019,0,0,1,3.025-4.053,7.283,7.283,0,0,1,4.464-1.41h.088a7.47,7.47,0,0,1,4.317,1.38,9.428,9.428,0,0,1,3.172,3.965,14.908,14.908,0,0,1,1.175,6.226A15.256,15.256,0,0,1,615.512,243.465Z" transform="translate(-409.608 -196.286)" fill="#272727" fill-rule="evenodd"/>
  <path id="Path_382" data-name="Path 382" d="M535.411,263.33a3.29,3.29,0,0,0-2.261-.764,3.023,3.023,0,0,0-1.968.587c-1.145,1.057-2.056,1.909-2.76,2.526a25.639,25.639,0,0,1-2.349,1.733,9.26,9.26,0,0,1-2.584,1.175,10.514,10.514,0,0,1-2.966.382,4.981,4.981,0,0,1-.676-.029,8.076,8.076,0,0,1-3.759-1.175,8.674,8.674,0,0,1-3.23-3.495,12.464,12.464,0,0,1-1.233-5.462h17.708a12.609,12.609,0,0,0,5.521-1c1.322-.7,1.968-2.173,1.968-4.434a15.305,15.305,0,0,0-1.909-7.254,14.75,14.75,0,0,0-5.7-5.785,17.509,17.509,0,0,0-9.1-2.232h-.264a20.6,20.6,0,0,0-7.166,1.292,15.829,15.829,0,0,0-5.668,3.759,16.872,16.872,0,0,0-3.465,5.9,22.7,22.7,0,0,0-1.2,7.459c0,5.7,1.615,10.161,4.846,13.479,3.054,3.142,7.283,4.787,12.657,4.963.294.029.617.029.94.029a20.816,20.816,0,0,0,6.755-1,16.841,16.841,0,0,0,4.875-2.5,12,12,0,0,0,2.907-3.172,5.85,5.85,0,0,0,.969-2.849A2.685,2.685,0,0,0,535.411,263.33Zm-21.144-16.592a7.207,7.207,0,0,1,5.55-2.32h.029a7.478,7.478,0,0,1,5.7,2.291c1.439,1.527,2.291,3.847,2.5,6.96H511.624C511.918,250.614,512.8,248.294,514.267,246.738Z" transform="translate(-357.553 -215.769)" fill="#272727" fill-rule="evenodd"/>
  <path id="Path_383" data-name="Path 383" d="M444.259,262.567a3.055,3.055,0,0,0-2,.587c-1.116,1.057-2.056,1.909-2.76,2.526a25.088,25.088,0,0,1-2.32,1.733,9.427,9.427,0,0,1-2.614,1.175,10.373,10.373,0,0,1-2.966.382,4.978,4.978,0,0,1-.675-.029,8.076,8.076,0,0,1-3.759-1.175,8.611,8.611,0,0,1-3.2-3.495,12.077,12.077,0,0,1-1.263-5.462h17.738a12.79,12.79,0,0,0,5.521-1c1.292-.7,1.938-2.173,1.938-4.434a15.265,15.265,0,0,0-1.879-7.254,14.949,14.949,0,0,0-5.7-5.785,17.582,17.582,0,0,0-9.1-2.232h-.294a20.727,20.727,0,0,0-7.166,1.292,15.461,15.461,0,0,0-5.638,3.759,16.5,16.5,0,0,0-3.495,5.9,22.7,22.7,0,0,0-1.2,7.459c0,5.7,1.645,10.161,4.875,13.479,3.054,3.142,7.254,4.787,12.628,4.963.323.029.617.029.94.029a20.691,20.691,0,0,0,6.754-1,16.839,16.839,0,0,0,4.875-2.5,11.521,11.521,0,0,0,2.907-3.172,5.85,5.85,0,0,0,.969-2.849,2.764,2.764,0,0,0-.852-2.144A3.4,3.4,0,0,0,444.259,262.567Zm-18.912-15.829a7.207,7.207,0,0,1,5.55-2.32h.029a7.477,7.477,0,0,1,5.7,2.291c1.468,1.527,2.291,3.847,2.526,6.96H422.7C423.027,250.614,423.908,248.294,425.347,246.738Z" transform="translate(-304.901 -215.769)" fill="#272727" fill-rule="evenodd"/>
  <path id="Path_384" data-name="Path 384" d="M352.888,206.522a3.954,3.954,0,0,0-3.142-1.322,3.728,3.728,0,0,0-3.172,1.439,6.574,6.574,0,0,0-1.116,4.2V224.23a18.386,18.386,0,0,0-5.257-4.141,12.942,12.942,0,0,0-3.906-1.175,19.576,19.576,0,0,0-2.7-.176,13.817,13.817,0,0,0-10.925,4.757c-2.76,3.172-4.141,7.577-4.141,13.245a26.318,26.318,0,0,0,1.028,7.459,18.093,18.093,0,0,0,3.084,5.991,14.382,14.382,0,0,0,4.816,3.935,13.43,13.43,0,0,0,6.02,1.38,14.807,14.807,0,0,0,2.819-.264,11.07,11.07,0,0,0,1.7-.411,14.527,14.527,0,0,0,3.847-2,23.947,23.947,0,0,0,3.612-3.407v.881a5.642,5.642,0,0,0,1.2,3.847,4.225,4.225,0,0,0,6.138.059,5.648,5.648,0,0,0,1.175-3.906V210.369A5.889,5.889,0,0,0,352.888,206.522Zm-9.1,36.944a8.542,8.542,0,0,1-3.172,3.788,7.946,7.946,0,0,1-4.317,1.233h-.029a7.853,7.853,0,0,1-4.346-1.292,8.69,8.69,0,0,1-3.142-3.876,15.5,15.5,0,0,1-1.145-6.285,16.222,16.222,0,0,1,1.057-6.108,9.069,9.069,0,0,1,3.054-4.053,7.2,7.2,0,0,1,4.434-1.41h.117a7.314,7.314,0,0,1,4.288,1.38,9.265,9.265,0,0,1,3.2,3.965,15.389,15.389,0,0,1,1.175,6.226A15.73,15.73,0,0,1,343.784,243.465Z" transform="translate(-248.711 -196.286)" fill="#272727" fill-rule="evenodd"/>
  <path id="Path_385" data-name="Path 385" d="M240.975,243.24v1.116a16.259,16.259,0,0,1,5.227-4.64,14.244,14.244,0,0,1,6.549-1.468,13.157,13.157,0,0,1,6.4,1.556,9.827,9.827,0,0,1,4.2,4.405,10.246,10.246,0,0,1,1.175,3.612,36.9,36.9,0,0,1,.264,4.9v16.827a5.986,5.986,0,0,1-1.263,4.111,4.1,4.1,0,0,1-3.23,1.41,4.152,4.152,0,0,1-3.289-1.439,5.911,5.911,0,0,1-1.263-4.082V254.488a15.284,15.284,0,0,0-1.233-6.872c-.822-1.586-2.5-2.379-4.963-2.379a7.456,7.456,0,0,0-4.4,1.439,8.352,8.352,0,0,0-2.937,3.994,28.612,28.612,0,0,0-.646,7.577v11.306a5.927,5.927,0,0,1-1.292,4.141,4.3,4.3,0,0,1-3.289,1.38,4.074,4.074,0,0,1-3.23-1.439,5.911,5.911,0,0,1-1.263-4.082V243.387a5.526,5.526,0,0,1,1.145-3.847,3.862,3.862,0,0,1,3.084-1.292,4.1,4.1,0,0,1,2.144.558,4,4,0,0,1,1.556,1.7A6.047,6.047,0,0,1,240.975,243.24Z" transform="translate(-197.765 -215.854)" fill="#272727" fill-rule="evenodd"/>
  <g id="Group_897" data-name="Group 897" transform="translate(0 0)">
    <path id="Path_386" data-name="Path 386" d="M193.608,257.714v21.614a6.477,6.477,0,0,0,1.38,4.493,4.521,4.521,0,0,0,3.524,1.527,4.634,4.634,0,0,0,3.583-1.5,6.509,6.509,0,0,0,1.38-4.523V255.6a15.6,15.6,0,0,1-8.047,2.2C194.812,257.8,194.225,257.773,193.608,257.714Z" transform="translate(-174.743 -226.129)" fill="#272727" fill-rule="evenodd"/>
    <path id="Path_387" data-name="Path 387" d="M187.1,190.585a8.854,8.854,0,0,0-2.526-3.407c-5.227-4.523-12.187-4.64-18.3-2.437-8.869,3.7-15.036,11.776-17.826,21.467a38.972,38.972,0,0,0-1.057,5.521c0,.059-.147,1.909.117,1.41a7.188,7.188,0,0,0,.529-1.586,48.092,48.092,0,0,1,5.521-12.628c6.05-8.9,15.77-14.625,26.049-11.453a23.243,23.243,0,0,1,5.315,2.7C185.251,190.409,187.63,192.289,187.1,190.585Z" transform="translate(-147.356 -183.345)" fill="#272727" fill-rule="evenodd"/>
    <path id="Path_388" data-name="Path 388" d="M190.783,212a7.447,7.447,0,1,0,10.014,3.26A7.424,7.424,0,0,0,190.783,212Z" transform="translate(-170.655 -199.83)" fill="#272727" fill-rule="evenodd"/>
  </g>
</svg>
