<svg xmlns="http://www.w3.org/2000/svg" xmlns:xlink="http://www.w3.org/1999/xlink" width="154.303" height="62.138" viewBox="0 0 154.303 62.138">
  <defs>
    <clipPath id="clip-path">
      <rect id="Rectangle_12" data-name="Rectangle 12" width="154.303" height="62.137" fill="#272727"/>
    </clipPath>
  </defs>
  <g id="Group_911" data-name="Group 911" transform="translate(0 0)">
    <path id="Path_444" data-name="Path 444" d="M0,0V61.62H8.826V49.331l4.241-6.667L21.03,61.62h9.607L18,35.569,28.473,17.741H19.645L9,36.868H8.826V0Z" fill="#272727"/>
    <g id="Group_910" data-name="Group 910" transform="translate(0 0.001)">
      <g id="Group_909" data-name="Group 909" clip-path="url(#clip-path)">
        <path id="Path_445" data-name="Path 445" d="M42.378,14.468a11.794,11.794,0,0,0-4.24-2.6A15.386,15.386,0,0,0,32.946,11a14.229,14.229,0,0,0-5.452,1,12.53,12.53,0,0,0-4.153,2.725,14.1,14.1,0,0,0-3.981,9.521h8.568a5.352,5.352,0,0,1,1.861-3.291,5,5,0,0,1,3.158-1.124,3.811,3.811,0,0,1,3.462,1.47,6.743,6.743,0,0,1,.952,3.722v4.589a11.045,11.045,0,0,0-1.3-.085,5.234,5.234,0,0,1-1.039-.089,4.959,4.959,0,0,0-.95-.086H33.12a21.711,21.711,0,0,0-6.837.908,9.4,9.4,0,0,0-4.24,2.728,10.4,10.4,0,0,0-2.25,4.717,31.3,31.3,0,0,0-.606,6.535,16.307,16.307,0,0,0,.908,5.927,8.476,8.476,0,0,0,2.38,3.506,8.167,8.167,0,0,0,3.072,1.773,11.033,11.033,0,0,0,3.158.476,8.312,8.312,0,0,0,4.978-1.3,16.336,16.336,0,0,0,3.5-3.722h.172v4.5h8.828V24.852a16.22,16.22,0,0,0-1.036-6.058,12.668,12.668,0,0,0-2.773-4.326M37.36,42.506a6.223,6.223,0,0,1-1.254,4.157,4.354,4.354,0,0,1-3.506,1.47,4.024,4.024,0,0,1-3.374-1.559,6.422,6.422,0,0,1-1.213-4.067q0-3.547,2.034-4.891a8.708,8.708,0,0,1,4.889-1.34,14.275,14.275,0,0,1,2.423.261Z" transform="translate(10.84 6.217)" fill="#272727"/>
        <path id="Path_446" data-name="Path 446" d="M76.443,16.2V11.524H67.615V55.4h8.828V29.352a10.429,10.429,0,0,1,.865-4.5,8.263,8.263,0,0,1,2.249-2.942,7.737,7.737,0,0,1,2.9-1.6,10.494,10.494,0,0,1,2.988-.476,7.154,7.154,0,0,1,2.681.518V11a13.506,13.506,0,0,0-6.4,1.383A26.766,26.766,0,0,0,76.443,16.2" transform="translate(38.201 6.216)" fill="#272727"/>
        <path id="Path_447" data-name="Path 447" d="M108.1,36.794V24.68a14.17,14.17,0,0,0-3.463-9.78,12.3,12.3,0,0,0-4.2-2.856A14.022,14.022,0,0,0,94.94,11a13.545,13.545,0,0,0-7.053,1.729A11.732,11.732,0,0,0,82.132,21.3a32.486,32.486,0,0,0-.346,4.933V40.689a32.4,32.4,0,0,0,.346,4.933,11.712,11.712,0,0,0,5.754,8.568,13.5,13.5,0,0,0,7.053,1.731,13.765,13.765,0,0,0,5.454-1.038,12.423,12.423,0,0,0,4.153-2.856,12.64,12.64,0,0,0,3.549-9.346H99.268a7.924,7.924,0,0,1-1,2.941q-.824,1.472-3.332,1.473a4.354,4.354,0,0,1-3.157-1.125,4.24,4.24,0,0,1-1.169-3.2V36.794ZM90.614,24.852a5.343,5.343,0,0,1,1.169-3.764,4.6,4.6,0,0,1,6.316,0,5.343,5.343,0,0,1,1.169,3.764v5.019H90.614Z" transform="translate(46.207 6.217)" fill="#272727"/>
        <path id="Path_448" data-name="Path 448" d="M79.1,23.54a11.965,11.965,0,0,0-4.457-4.589,13.55,13.55,0,0,0-7.056-1.731,13.521,13.521,0,0,0-7.052,1.731,11.735,11.735,0,0,0-5.756,8.568,32.658,32.658,0,0,0-.346,4.933V46.907a32.614,32.614,0,0,0,.346,4.933,13.368,13.368,0,0,0,.466,1.991H51.752a5.711,5.711,0,0,1-3.418-1.169q-.911-.906-.911-3.416V0H38.6V49.849a17.882,17.882,0,0,0,.908,6.276A8.064,8.064,0,0,0,42.143,59.8,9.476,9.476,0,0,0,46.3,61.662a28.351,28.351,0,0,0,5.451.476H67.586a13.535,13.535,0,0,0,7.056-1.729A11.719,11.719,0,0,0,80.4,51.84a32.817,32.817,0,0,0,.346-4.933V32.453A32.862,32.862,0,0,0,80.4,27.52a12.005,12.005,0,0,0-1.3-3.98M71.915,48.29a5.356,5.356,0,0,1-1.169,3.767,4.6,4.6,0,0,1-6.316,0A5.356,5.356,0,0,1,63.26,48.29V31.069A5.347,5.347,0,0,1,64.429,27.3a4.6,4.6,0,0,1,6.316,0,5.347,5.347,0,0,1,1.169,3.765Z" transform="translate(21.807 -0.001)" fill="#272727"/>
      </g>
    </g>
  </g>
</svg>
