<svg id="Group_931" data-name="Group 931" xmlns="http://www.w3.org/2000/svg" xmlns:xlink="http://www.w3.org/1999/xlink" width="216.461" height="48.649" viewBox="0 0 216.461 48.649">
  <defs>
    <clipPath id="clip-path">
      <rect id="Rectangle_40" data-name="Rectangle 40" width="216.461" height="48.649" fill="#272727"/>
    </clipPath>
  </defs>
  <g id="Group_930" data-name="Group 930" clip-path="url(#clip-path)">
    <path id="Path_539" data-name="Path 539" d="M11.81,0,0,48.649H19.513l1.64-6.757H11.478L21.648,0ZM90.859,13.378H81.1l-8.54,12.244L78.782,0H69.674L57.864,48.649h9.108l3.32-13.676,1.715-2.054.83,15.729h9.432l-3.7-20.378Zm-60.453,0-8.562,35.27h9.108l8.562-35.27Zm32.151,3.284a5.226,5.226,0,0,0-1.487-2.892,4.156,4.156,0,0,0-3.052-1.176A9.964,9.964,0,0,0,54,13.487a13.774,13.774,0,0,0-3.7,2.378l.6-2.487H41.8l-8.562,35.27h9.108L48.986,21.3l.242-.216c.139-.125.231-.211.279-.256s.149-.135.309-.27.276-.23.353-.284l.343-.243a2.294,2.294,0,0,1,.38-.23q.151-.067.35-.162a1.794,1.794,0,0,1,.384-.135,1.621,1.621,0,0,1,.347-.041q1.513,0,.943,2.352L46.4,48.649h9.108l6.9-28.432a8.64,8.64,0,0,0,.146-3.554m94.456,4.149,1.811-7.675a16.033,16.033,0,0,0-2.4-.271q-2.784,0-5.662,3.379l.676-2.865h-9.054l-8.321,35.27h9.054l5.586-23.676a6.355,6.355,0,0,1,1.735-3.284,4.359,4.359,0,0,1,3.095-1.149q1.027,0,3.477.27M135.57,31.7l3.762-15.946a31.22,31.22,0,0,0,1-7.163,8.746,8.746,0,0,0-1.348-4.824A7.383,7.383,0,0,0,134.721.879,28.135,28.135,0,0,0,126.914,0H116.752L107.51,39.242h10.216l7.61-32.323a9.61,9.61,0,0,1,4.619.812q1.247.784.68,3.189l-6.179,26.189a16.942,16.942,0,0,1-.531,1.851,4.228,4.228,0,0,1-.722,1.283,4.016,4.016,0,0,1-.9.825,3.776,3.776,0,0,1-1.294.446,12.027,12.027,0,0,1-1.669.2c-.149.007-25.443.068-25.457.068q-1.73,0-1.008-2.973L94.774,31h12.567l1.772-7.3q1.371-5.648-.53-8.784t-7.414-3.135a12.7,12.7,0,0,0-8.927,3.149,16.943,16.943,0,0,0-4.805,8.77L83.8,38.7q-1.063,4.378,1.451,7.162a8.912,8.912,0,0,0,6.965,2.783h23.117a37.334,37.334,0,0,0,5.394-.352,23.341,23.341,0,0,0,4.263-1,12.18,12.18,0,0,0,3.347-1.757,15.125,15.125,0,0,0,2.551-2.392,14.8,14.8,0,0,0,1.956-3.135,30.011,30.011,0,0,0,1.5-3.784q.618-1.931,1.23-4.527M97.116,21.352q.649-2.675,2.379-2.676,1.81,0,1.161,2.676l-1.181,4.865H95.935Zm118.209-6.432q-1.922-3.135-7.436-3.135a12.627,12.627,0,0,0-8.905,3.149,16.8,16.8,0,0,0-4.745,8.77l-3.539,15q-1.033,4.378,1.5,7.162a8.975,8.975,0,0,0,6.992,2.784,13.916,13.916,0,0,0,8.3-2.77,12.037,12.037,0,0,0,4.882-7.176l.937-3.973h-8.946l-.912,3.865q-.753,3.19-2.645,3.189-1.73,0-1.028-2.973L201.626,31h12.567l1.721-7.3q1.333-5.648-.59-8.784m-7.882,6.432L206.3,26.216h-3.541l1.148-4.865q.631-2.675,2.361-2.676,1.81,0,1.18,2.676m-19.857-7.973L179.022,37.19l2.131-23.811h-8.541l-1,35.27h9.216l15.295-35.27Zm-34.742,35.27h9.108l8.321-35.27h-9.108ZM37.056,9.217a4.381,4.381,0,1,0-4.381-4.381,4.381,4.381,0,0,0,4.381,4.381M167.735.455a4.381,4.381,0,1,0,4.381,4.381A4.381,4.381,0,0,0,167.735.455" fill="#272727"/>
  </g>
</svg>
