<svg id="Group_900" data-name="Group 900" xmlns="http://www.w3.org/2000/svg" xmlns:xlink="http://www.w3.org/1999/xlink" width="169.662" height="152.634" viewBox="0 0 169.662 152.634">
  <defs>
    <clipPath id="clip-path">
      <rect id="Rectangle_6" data-name="Rectangle 6" width="169.663" height="152.634" fill="#272727"/>
    </clipPath>
  </defs>
  <g id="Group_899" data-name="Group 899" clip-path="url(#clip-path)">
    <path id="Path_389" data-name="Path 389" d="M35.849,28.128v76.591l33.844,12.866,33.844-12.866V28.128ZM69.384,97.182a20.659,20.659,0,0,0,6.738-1.241c-.755.958-1.547,1.9-2.4,2.795l-4.337,4.573-4.337-4.573a40.486,40.486,0,0,1-9.257-15.851c5.587,5.356,12.372,8.171,17.795,8.171-25.36-13.318-10.161-45.726-4.61-53.387-4.877,16.751-.8,37.381,14.185,29.814,1.574,10.976-.748,22.858-13.777,29.7" transform="translate(15.111 11.857)" fill="#272727"/>
    <path id="Path_390" data-name="Path 390" d="M1.951,77.864,1.339,74.43l10.91-1.94-1.487-8.347L13.8,63.6l2.1,11.784Z" transform="translate(0.565 26.81)" fill="#272727"/>
    <path id="Path_391" data-name="Path 391" d="M8.361,64.94,0,64.383.232,60.9l8.36.557c2.364.156,3.018-.436,3.2-3.18.176-2.638-.35-3.352-2.756-3.511L.678,54.211.9,50.873l8.361.557c4.791.318,5.943,1.794,5.587,7.156S13.153,65.26,8.361,64.94" transform="translate(0 21.445)" fill="#272727"/>
    <path id="Path_392" data-name="Path 392" d="M1.761,49.64l1.811-4.808,9.716-.426L6.273,37.672l1.871-4.965,13.254,5-1.231,3.264L10.3,37.245l8.28,7.936L17.744,47.4l-11.186.482,9.634,3.631-1.178,3.127Z" transform="translate(0.742 13.787)" fill="#272727"/>
    <rect id="Rectangle_3" data-name="Rectangle 3" width="3.49" height="14.173" transform="translate(13.572 39.189) rotate(-56.226)" fill="#272727"/>
    <path id="Path_393" data-name="Path 393" d="M14.294,23.758l3.058-3.041,10.625,1.811L21.79,16.306l2.368-2.354L34.146,24l-2.384,2.37L19.525,24.281l7.123,7.167L24.28,33.8Z" transform="translate(6.025 5.881)" fill="#272727"/>
    <path id="Path_394" data-name="Path 394" d="M28.747,9.382,32.38,7.3l12.084,9.4L41.2,18.575,39,16.835l-5.484,3.15.4,2.772L30.8,24.549Zm7.833,5.48L32.132,11.2l.907,5.7Z" transform="translate(12.118 3.076)" fill="#272727"/>
    <path id="Path_395" data-name="Path 395" d="M39.505,4.233l8-2.188c3.754-1.031,5.439-.176,6.33,3.09.7,2.549.236,4.06-1.737,5.1l5.11,3.844-4.162,1.14-4.857-3.714-2.857.783,1.285,4.692-3.368.923Zm9.442,3.953c1.468-.4,1.847-.944,1.528-2.108-.314-1.143-.92-1.437-2.388-1.036l-4.41,1.21.861,3.142Z" transform="translate(16.653 0.688)" fill="#272727"/>
    <path id="Path_396" data-name="Path 396" d="M58.783,8.674,52.756.42,56.985.3l3.7,5.082L63.963.107,67.83,0,62.273,8.577l.159,5.752-3.488.1Z" transform="translate(22.238 0)" fill="#272727"/>
    <path id="Path_397" data-name="Path 397" d="M70.262,14.2l1.144-2.923a17.724,17.724,0,0,0,5.7,2.752c2.377.751,3,.679,3.348-.429.247-.786.055-1.157-1.572-1.827l-2.358-.967C73.243,9.462,72.332,8.131,73.2,5.371,74.227,2.122,76.237,1.515,80.936,3A20.726,20.726,0,0,1,85.993,5.3L84.858,8.2a18.184,18.184,0,0,0-5.149-2.445c-2.279-.718-2.785-.59-3.1.418-.229.726-.1,1.08,1.613,1.773l2.336.96c3.373,1.4,4.158,2.775,3.285,5.538-1.051,3.328-3.025,3.9-7.885,2.368A21.617,21.617,0,0,1,70.262,14.2" transform="translate(29.618 0.941)" fill="#272727"/>
    <path id="Path_398" data-name="Path 398" d="M84.5,11.744c2.887-4.6,5.618-5.14,10.441-2.118,4.839,3.031,5.531,5.712,2.644,10.319s-5.6,5.153-10.438,2.119c-4.822-3.021-5.533-5.712-2.647-10.32m10.056,6.3c1.774-2.832,1.51-4.121-1.232-5.84s-4.017-1.395-5.793,1.437-1.51,4.122,1.234,5.841,4.019,1.393,5.791-1.439" transform="translate(34.899 3.262)" fill="#272727"/>
    <path id="Path_399" data-name="Path 399" d="M97.128,19.812c3.881-3.685,6.781-3.52,10.67.577a14.452,14.452,0,0,1,2.726,3.916l-2.387,1.973a14.358,14.358,0,0,0-2.495-3.611c-2.272-2.4-3.69-2.506-6.053-.264s-2.324,3.668-.054,6.06a14.394,14.394,0,0,0,3.477,2.68l-2.092,2.279a14.367,14.367,0,0,1-3.77-2.924c-3.891-4.1-3.9-7-.023-10.686" transform="translate(39.719 7.24)" fill="#272727"/>
    <rect id="Rectangle_4" data-name="Rectangle 4" width="14.168" height="3.489" transform="matrix(0.837, -0.548, 0.548, 0.837, 142.715, 44.701)" fill="#272727"/>
    <path id="Path_400" data-name="Path 400" d="M116.906,32.979l4.828,11.783-2.817,1.157-3.505-8.556-2.272.931,2.945,7.184-2.762,1.132-2.943-7.184-2.446,1,3.569,8.711-2.819,1.156L103.79,38.353Z" transform="translate(43.75 13.902)" fill="#272727"/>
    <path id="Path_401" data-name="Path 401" d="M119.324,51.145l-.749-4.785,3.051-.479,2.041,13.02-3.052.478-.749-4.785-10.951,1.716-.54-3.447Z" transform="translate(45.683 19.34)" fill="#272727"/>
    <path id="Path_402" data-name="Path 402" d="M114.925,63.88l8.819-5.152-.313,4.218L118,66.1l4.913,3.8-.287,3.858-7.963-6.4-5.734-.426.26-3.478Z" transform="translate(45.918 24.756)" fill="#272727"/>
    <path id="Path_403" data-name="Path 403" d="M13.359,101.056v8.873H12.8v-7.563a3.318,3.318,0,0,1,.018-.345l-3.493,6.2a.274.274,0,0,1-.252.162h-.1a.274.274,0,0,1-.252-.162l-3.587-6.215a3.539,3.539,0,0,1,.018.358v7.563H4.592v-8.873h.446a.4.4,0,0,1,.138.018.231.231,0,0,1,.1.1l3.581,6.169a2.735,2.735,0,0,1,.163.377c.024-.067.051-.132.081-.2a2.042,2.042,0,0,1,.094-.185l3.48-6.164a.23.23,0,0,1,.1-.1.427.427,0,0,1,.141-.018Z" transform="translate(1.936 42.598)" fill="#272727"/>
    <path id="Path_404" data-name="Path 404" d="M19.167,109.4l-.013.533H13.837v-8.873h5.317v.533H14.483v3.587h3.888v.522H14.483v3.7Z" transform="translate(5.833 42.598)" fill="#272727"/>
    <path id="Path_405" data-name="Path 405" d="M27.037,101.056v8.873h-.3a.292.292,0,0,1-.135-.028.314.314,0,0,1-.1-.1l-5.763-7.7a3.511,3.511,0,0,1,.018.357v7.469h-.564v-8.873h.32a.312.312,0,0,1,.135.023.3.3,0,0,1,.1.1l5.75,7.681a3.529,3.529,0,0,1-.02-.357v-7.443Z" transform="translate(8.51 42.598)" fill="#272727"/>
    <path id="Path_406" data-name="Path 406" d="M32.616,102.164a.177.177,0,0,1-.163.107.355.355,0,0,1-.209-.117,2.856,2.856,0,0,0-.348-.256,2.641,2.641,0,0,0-.549-.26,2.751,2.751,0,0,0-1.662.018,1.791,1.791,0,0,0-.614.375,1.589,1.589,0,0,0-.377.553,1.724,1.724,0,0,0-.129.658,1.36,1.36,0,0,0,.192.746,1.711,1.711,0,0,0,.5.5,3.19,3.19,0,0,0,.712.348c.266.1.537.188.819.28s.552.193.817.3a2.885,2.885,0,0,1,.712.417,1.923,1.923,0,0,1,.5.617,1.976,1.976,0,0,1,.19.913,2.9,2.9,0,0,1-.19,1.051,2.441,2.441,0,0,1-.556.856,2.6,2.6,0,0,1-.89.574,3.243,3.243,0,0,1-1.2.21,3.4,3.4,0,0,1-1.511-.311,3.558,3.558,0,0,1-1.11-.85l.176-.274a.217.217,0,0,1,.175-.1.253.253,0,0,1,.145.075l.213.185c.084.074.183.154.3.239a2.506,2.506,0,0,0,.408.237,2.813,2.813,0,0,0,.533.185,2.778,2.778,0,0,0,.684.077,2.6,2.6,0,0,0,.941-.161,2.05,2.05,0,0,0,.7-.435,1.841,1.841,0,0,0,.436-.655,2.176,2.176,0,0,0,.151-.813,1.424,1.424,0,0,0-.192-.773,1.641,1.641,0,0,0-.5-.509,3.327,3.327,0,0,0-.711-.341q-.4-.139-.819-.27c-.28-.087-.553-.186-.819-.294a2.858,2.858,0,0,1-.711-.417,1.9,1.9,0,0,1-.5-.634,2.092,2.092,0,0,1-.192-.95,2.255,2.255,0,0,1,.169-.859,2.13,2.13,0,0,1,.5-.731,2.419,2.419,0,0,1,.806-.509,2.947,2.947,0,0,1,1.093-.19,3.3,3.3,0,0,1,1.238.219,2.961,2.961,0,0,1,1,.671Z" transform="translate(11.615 42.569)" fill="#272727"/>
    <path id="Path_407" data-name="Path 407" d="M41.034,109.929h-.5a.215.215,0,0,1-.144-.047.312.312,0,0,1-.088-.122l-1.041-2.577H34.907l-1.041,2.577a.276.276,0,0,1-.088.119.227.227,0,0,1-.151.05h-.489l3.631-8.872H37.4Zm-1.963-3.223-1.805-4.484a4.454,4.454,0,0,1-.182-.526c-.026.1-.053.195-.082.284a2.174,2.174,0,0,1-.094.249L35.1,106.706Z" transform="translate(13.969 42.599)" fill="#272727"/>
    <path id="Path_408" data-name="Path 408" d="M48.343,101.589v3.732h4.044v.533H48.343v4.076H47.7v-8.873h5.317v.533Z" transform="translate(20.106 42.598)" fill="#272727"/>
    <path id="Path_409" data-name="Path 409" d="M61.9,105.519a5.347,5.347,0,0,1-.308,1.865,4.142,4.142,0,0,1-.864,1.43,3.835,3.835,0,0,1-1.339.915,4.746,4.746,0,0,1-3.44,0,3.844,3.844,0,0,1-1.335-.915,4.123,4.123,0,0,1-.866-1.43,5.8,5.8,0,0,1,0-3.724,4.123,4.123,0,0,1,.866-1.43,3.871,3.871,0,0,1,1.335-.918,4.4,4.4,0,0,1,1.719-.326,4.473,4.473,0,0,1,1.721.323,3.8,3.8,0,0,1,1.339.918,4.182,4.182,0,0,1,.864,1.433,5.337,5.337,0,0,1,.308,1.859m-.665,0a5.039,5.039,0,0,0-.257-1.667,3.541,3.541,0,0,0-.728-1.254,3.121,3.121,0,0,0-1.127-.788,4,4,0,0,0-2.9,0,3.149,3.149,0,0,0-1.132.788,3.572,3.572,0,0,0-.734,1.254,5.488,5.488,0,0,0,0,3.339,3.6,3.6,0,0,0,.734,1.251,3.138,3.138,0,0,0,1.132.783,4.058,4.058,0,0,0,2.9,0,3.11,3.11,0,0,0,1.127-.783,3.566,3.566,0,0,0,.728-1.251,5.047,5.047,0,0,0,.257-1.672" transform="translate(22.529 42.569)" fill="#272727"/>
    <path id="Path_410" data-name="Path 410" d="M65.349,109.471a2.814,2.814,0,0,0,1.144-.222,2.471,2.471,0,0,0,.856-.618,2.705,2.705,0,0,0,.536-.931,3.515,3.515,0,0,0,.185-1.157v-5.486h.64v5.486a3.963,3.963,0,0,1-.232,1.37,3.28,3.28,0,0,1-.667,1.11,3.09,3.09,0,0,1-1.06.742,3.772,3.772,0,0,1-2.8,0,3.07,3.07,0,0,1-1.059-.742,3.26,3.26,0,0,1-.668-1.11,3.963,3.963,0,0,1-.232-1.37v-5.486h.645v5.48a3.558,3.558,0,0,0,.185,1.157,2.773,2.773,0,0,0,.533.931,2.455,2.455,0,0,0,.853.62,2.773,2.773,0,0,0,1.144.226" transform="translate(26.13 42.599)" fill="#272727"/>
    <path id="Path_411" data-name="Path 411" d="M76.565,101.056v8.873h-.3a.292.292,0,0,1-.135-.028.314.314,0,0,1-.1-.1l-5.763-7.7a3.509,3.509,0,0,1,.018.357v7.469h-.564v-8.873h.32a.312.312,0,0,1,.135.023.3.3,0,0,1,.1.1l5.75,7.681a3.533,3.533,0,0,1-.02-.357v-7.443Z" transform="translate(29.388 42.598)" fill="#272727"/>
    <path id="Path_412" data-name="Path 412" d="M85.087,105.49a5.219,5.219,0,0,1-.308,1.849,4,4,0,0,1-.864,1.4,3.759,3.759,0,0,1-1.339.884,4.665,4.665,0,0,1-1.721.307H77.613v-8.873h3.241a4.665,4.665,0,0,1,1.721.307,3.779,3.779,0,0,1,1.339.884,4.017,4.017,0,0,1,.864,1.4,5.2,5.2,0,0,1,.308,1.844m-.665,0a4.946,4.946,0,0,0-.257-1.656,3.444,3.444,0,0,0-.726-1.228,3.117,3.117,0,0,0-1.129-.765,3.879,3.879,0,0,0-1.456-.264h-2.6v7.833h2.6a3.906,3.906,0,0,0,1.456-.263,3.139,3.139,0,0,0,1.129-.766,3.444,3.444,0,0,0,.726-1.228,4.957,4.957,0,0,0,.257-1.662" transform="translate(32.716 42.598)" fill="#272727"/>
    <path id="Path_413" data-name="Path 413" d="M92.5,109.929H92a.215.215,0,0,1-.144-.047.312.312,0,0,1-.088-.122l-1.041-2.577H86.372l-1.041,2.577a.277.277,0,0,1-.088.119.227.227,0,0,1-.151.05H84.6l3.631-8.872h.634Zm-1.963-3.223-1.805-4.484a4.446,4.446,0,0,1-.182-.526c-.026.1-.053.195-.082.284a2.172,2.172,0,0,1-.094.249l-1.805,4.476Z" transform="translate(35.663 42.599)" fill="#272727"/>
    <path id="Path_414" data-name="Path 414" d="M97.915,101.6H94.8v8.327h-.647V101.6H91.017v-.546h6.9Z" transform="translate(38.367 42.598)" fill="#272727"/>
    <rect id="Rectangle_5" data-name="Rectangle 5" width="0.645" height="8.873" transform="translate(139.529 143.654)" fill="#272727"/>
    <path id="Path_415" data-name="Path 415" d="M109.741,105.519a5.347,5.347,0,0,1-.308,1.865,4.142,4.142,0,0,1-.864,1.43,3.835,3.835,0,0,1-1.339.915,4.746,4.746,0,0,1-3.44,0,3.844,3.844,0,0,1-1.335-.915,4.123,4.123,0,0,1-.866-1.43,5.8,5.8,0,0,1,0-3.724,4.123,4.123,0,0,1,.866-1.43,3.871,3.871,0,0,1,1.335-.918,4.4,4.4,0,0,1,1.719-.326,4.473,4.473,0,0,1,1.721.323,3.8,3.8,0,0,1,1.339.918,4.181,4.181,0,0,1,.864,1.433,5.337,5.337,0,0,1,.308,1.859m-.665,0a5.039,5.039,0,0,0-.257-1.667,3.541,3.541,0,0,0-.728-1.254,3.121,3.121,0,0,0-1.127-.788,4,4,0,0,0-2.9,0,3.149,3.149,0,0,0-1.132.788,3.572,3.572,0,0,0-.734,1.254,5.488,5.488,0,0,0,0,3.339,3.6,3.6,0,0,0,.734,1.251,3.138,3.138,0,0,0,1.132.783,4.058,4.058,0,0,0,2.9,0,3.11,3.11,0,0,0,1.127-.783,3.566,3.566,0,0,0,.728-1.251,5.047,5.047,0,0,0,.257-1.672" transform="translate(42.693 42.569)" fill="#272727"/>
    <path id="Path_416" data-name="Path 416" d="M116.753,101.056v8.873h-.3a.292.292,0,0,1-.135-.028.314.314,0,0,1-.1-.1l-5.763-7.7a3.514,3.514,0,0,1,.018.357v7.469h-.564v-8.873h.32a.312.312,0,0,1,.135.023.3.3,0,0,1,.1.1l5.75,7.681a3.53,3.53,0,0,1-.02-.357v-7.443Z" transform="translate(46.328 42.598)" fill="#272727"/>
    <path id="Path_417" data-name="Path 417" d="M39.246,103.012a1.9,1.9,0,0,1,.07-.519,1.953,1.953,0,0,1,.5-.863,2.074,2.074,0,0,1,.4-.307,1.921,1.921,0,0,1,.982-.267,1.942,1.942,0,0,1,.987.267,2.12,2.12,0,0,1,.4.307,1.921,1.921,0,0,1,.306.4,2.034,2.034,0,0,1,.2.468,1.962,1.962,0,0,1,0,1.036,2.023,2.023,0,0,1-.2.466,1.95,1.95,0,0,1-.306.394,2.12,2.12,0,0,1-.4.307,1.949,1.949,0,0,1-.468.2,1.962,1.962,0,0,1-1.036,0,1.928,1.928,0,0,1-.465-.2,2.074,2.074,0,0,1-.4-.307,2,2,0,0,1-.306-.394,1.981,1.981,0,0,1-.2-.465,1.9,1.9,0,0,1-.07-.519m.27,0a1.739,1.739,0,0,0,.226.867,1.646,1.646,0,0,0,.262.347,1.684,1.684,0,0,0,.338.264,1.687,1.687,0,0,0,1.713,0,1.633,1.633,0,0,0,.343-.264,1.7,1.7,0,0,0,.263-.347,1.772,1.772,0,0,0,.169-.411,1.759,1.759,0,0,0-.071-1.129,1.749,1.749,0,0,0-.361-.546,1.677,1.677,0,0,0-.539-.37,1.648,1.648,0,0,0-.662-.135,1.7,1.7,0,0,0-.452.061,1.719,1.719,0,0,0-.4.173,1.7,1.7,0,0,0-.338.267,1.731,1.731,0,0,0-.262.348,1.765,1.765,0,0,0-.168.414,1.814,1.814,0,0,0-.058.459m2.364.647a.1.1,0,0,1,.073.028l.161.172a1.027,1.027,0,0,1-.374.273,1.268,1.268,0,0,1-.529.1,1.208,1.208,0,0,1-.478-.092,1.065,1.065,0,0,1-.368-.253,1.118,1.118,0,0,1-.237-.387,1.38,1.38,0,0,1-.085-.492,1.306,1.306,0,0,1,.091-.5,1.149,1.149,0,0,1,.253-.387,1.124,1.124,0,0,1,.388-.252,1.25,1.25,0,0,1,.483-.09,1.129,1.129,0,0,1,.847.328l-.122.173a.418.418,0,0,1-.036.033.084.084,0,0,1-.051.016.139.139,0,0,1-.078-.03,1.185,1.185,0,0,0-.108-.065,1.018,1.018,0,0,0-.171-.067.881.881,0,0,0-.257-.03.908.908,0,0,0-.338.06.718.718,0,0,0-.257.172.772.772,0,0,0-.163.273,1.207,1.207,0,0,0,0,.728.784.784,0,0,0,.159.272.664.664,0,0,0,.242.166.8.8,0,0,0,.307.057,1.172,1.172,0,0,0,.232-.02.819.819,0,0,0,.163-.053.849.849,0,0,0,.129-.068,1.274,1.274,0,0,1,.124-.07" transform="translate(16.543 42.598)" fill="#272727"/>
  </g>
</svg>
