<svg id="Group_908" data-name="Group 908" xmlns="http://www.w3.org/2000/svg" xmlns:xlink="http://www.w3.org/1999/xlink" width="279.764" height="89.504" viewBox="0 0 279.764 89.504">
  <defs>
    <clipPath id="clip-path">
      <rect id="Rectangle_11" data-name="Rectangle 11" width="279.764" height="89.504" fill="#272727"/>
    </clipPath>
  </defs>
  <g id="Group_907" data-name="Group 907" clip-path="url(#clip-path)">
    <path id="Path_432" data-name="Path 432" d="M73.614,29.071a14.447,14.447,0,0,0-5.05.814A11.8,11.8,0,0,0,62,35.76L44.919,29.586a3.265,3.265,0,0,1,.1-.662,7.321,7.321,0,0,1,1.262-2.585,10.76,10.76,0,0,1,1.367-1.525c1.777-1.653,4.992-3.625,10.239-3.625V16.08c-7.138,0-12.008,2.88-14.874,6.187C29.912,16.5,18.614,23.767,5.3,33.828A32.147,32.147,0,0,1,67.483,26.29a32.214,32.214,0,0,1,5.093-.889A37.257,37.257,0,0,0,0,37.267v.828L37.266,89.5,45.9,77.591l3-4.142A33.714,33.714,0,0,1,44.876,70.3a18.2,18.2,0,0,1-5.105-7.268,10.92,10.92,0,0,1-.218-6.45c2.231,1.129,4.543.427,6.265-.094,1.931-.585,3.6-1.091,5.766-.184a16.342,16.342,0,0,0,2.791.894,10.867,10.867,0,0,0,6.638-.452,8.767,8.767,0,0,0,3.361-2.382l.791-1.006-.457-1.708L63,45.294,61.9,41.153l.637.23,2.442.883.842-2.457a8.169,8.169,0,0,1,3.532-4.652,8.377,8.377,0,0,1,5.045-.981,9.078,9.078,0,0,1,1.423.25l1.4-4.915a15.333,15.333,0,0,0-3.6-.44M59.142,50.622,57.9,52.339a8.32,8.32,0,0,1-4.343-.747c-3.864-1.617-6.959-.677-9.22.008-2.436.738-2.582.782-3.507-.795l-2.3-3.916-2.153,4a16.779,16.779,0,0,0-1.437,13.807,23.732,23.732,0,0,0,6.924,9.764l-4.6,6.34L6.955,38.984c13.083-9.96,22.623-16.539,33.395-12.267a9.669,9.669,0,0,0-.408,1.5c-.51,2.829.567,5.181,2.769,6l13.328,4.816Z" fill="#272727"/>
    <path id="Path_433" data-name="Path 433" d="M144.975,65.431v2.007a7.229,7.229,0,0,1-.57,2.85,7.9,7.9,0,0,1-1.574,2.394,7.559,7.559,0,0,1-2.349,1.665,6.869,6.869,0,0,1-2.9.615,10.413,10.413,0,0,1-2.69-.364,6.362,6.362,0,0,1-2.462-1.277,7.054,7.054,0,0,1-1.8-2.349,8.31,8.31,0,0,1-.707-3.67V49.425a7.9,7.9,0,0,1,.547-2.964,6.98,6.98,0,0,1,1.55-2.371,7.21,7.21,0,0,1,2.394-1.573,8.031,8.031,0,0,1,3.078-.57,7.054,7.054,0,0,1,5.335,2.143,7.642,7.642,0,0,1,1.574,2.485,8.4,8.4,0,0,1,.57,3.123v1.824h-4.652v-1.55a3.765,3.765,0,0,0-.775-2.372,2.514,2.514,0,0,0-2.1-1,2.364,2.364,0,0,0-2.3,1.072,5.746,5.746,0,0,0-.57,2.713v16.6a4.3,4.3,0,0,0,.615,2.371,2.426,2.426,0,0,0,2.212.958,3.362,3.362,0,0,0,.98-.16,2.893,2.893,0,0,0,.98-.525,2.766,2.766,0,0,0,.684-1,4.059,4.059,0,0,0,.273-1.6v-1.6Z" transform="translate(-42.44 -13.702)" fill="#272727"/>
    <path id="Path_434" data-name="Path 434" d="M154.046,74.82,161.3,42.354h3.876l7.251,32.466h-4.652L166.4,67.844h-6.338L158.7,74.82Zm11.491-11.354L163.257,51.7h-.092l-2.28,11.765Z" transform="translate(-50.319 -13.835)" fill="#272727"/>
    <path id="Path_435" data-name="Path 435" d="M185.151,74.82V42.353h6.795a9.533,9.533,0,0,1,3.808.683,7.194,7.194,0,0,1,2.576,1.824,6.84,6.84,0,0,1,1.436,2.622,10.939,10.939,0,0,1,.433,3.078v1.186a10.314,10.314,0,0,1-.205,2.234,5.342,5.342,0,0,1-.615,1.6,6.394,6.394,0,0,1-2.371,2.188,5.047,5.047,0,0,1,2.417,2.28,9.057,9.057,0,0,1,.775,4.1v1.824q0,4.287-2.075,6.567t-6.635,2.28ZM189.8,46.73v8.937h2.1q2.325,0,3.123-1.163a6,6,0,0,0,.8-3.4,5.125,5.125,0,0,0-.889-3.283,3.955,3.955,0,0,0-3.215-1.094Zm0,13.041v10.4h2.007a4.909,4.909,0,0,0,2.211-.41,2.825,2.825,0,0,0,1.209-1.141,4.293,4.293,0,0,0,.5-1.733q.091-1,.091-2.188a14.694,14.694,0,0,0-.137-2.143A3.9,3.9,0,0,0,195.137,61a2.626,2.626,0,0,0-1.231-.935,5.873,5.873,0,0,0-2.052-.3Z" transform="translate(-60.479 -13.835)" fill="#272727"/>
    <path id="Path_436" data-name="Path 436" d="M211.1,74.82V42.353h7.479q8.207,0,8.207,9.531a12.011,12.011,0,0,1-.889,4.878A6.9,6.9,0,0,1,222.773,60l5.016,14.82h-4.924l-4.332-13.862h-2.782V74.82Zm4.652-28.09V56.854H218.4a4.677,4.677,0,0,0,1.961-.342,2.662,2.662,0,0,0,1.14-.98,4.45,4.45,0,0,0,.5-1.573,17.233,17.233,0,0,0,0-4.332,4.339,4.339,0,0,0-.547-1.619q-.867-1.276-3.283-1.277Z" transform="translate(-68.955 -13.835)" fill="#272727"/>
    <path id="Path_437" data-name="Path 437" d="M239.948,74.82V42.353H253.81V46.73H244.6v9.53h8.026v4.378H244.6v9.53h9.211V74.82Z" transform="translate(-78.378 -13.834)" fill="#272727"/>
    <path id="Path_438" data-name="Path 438" d="M264.348,74.82V42.353h7.479q8.208,0,8.208,9.531a12.01,12.01,0,0,1-.889,4.878A6.9,6.9,0,0,1,276.022,60l5.016,14.82h-4.924l-4.332-13.862H269V74.82ZM269,46.73V56.854h2.644a4.677,4.677,0,0,0,1.961-.342,2.662,2.662,0,0,0,1.14-.98,4.451,4.451,0,0,0,.5-1.573,17.236,17.236,0,0,0,0-4.332,4.339,4.339,0,0,0-.547-1.619q-.867-1.276-3.283-1.277Z" transform="translate(-86.349 -13.835)" fill="#272727"/>
    <path id="Path_439" data-name="Path 439" d="M291.321,74.948l7.251-32.466h3.876L309.7,74.948h-4.652l-1.368-6.977h-6.338l-1.368,6.977Zm11.491-11.354-2.28-11.765h-.092l-2.28,11.765Z" transform="translate(-95.159 -13.877)" fill="#272727"/>
    <path id="Path_440" data-name="Path 440" d="M319.747,74.949V46.859h-5.381V42.482h15.413v4.377H324.4v28.09Z" transform="translate(-102.687 -13.877)" fill="#272727"/>
    <path id="Path_441" data-name="Path 441" d="M339.537,50.01a8.294,8.294,0,0,1,.684-3.465,7.317,7.317,0,0,1,1.824-2.508,7.72,7.72,0,0,1,2.485-1.46,8.276,8.276,0,0,1,8.14,1.46,7.637,7.637,0,0,1,1.778,2.508,8.294,8.294,0,0,1,.684,3.465V67.155a8.218,8.218,0,0,1-.684,3.511,7.246,7.246,0,0,1-1.778,2.417,7.817,7.817,0,0,1-2.531,1.5,8.09,8.09,0,0,1-5.609,0,7.312,7.312,0,0,1-2.485-1.5,6.957,6.957,0,0,1-1.824-2.417,8.218,8.218,0,0,1-.684-3.511Zm4.652,17.146a3.091,3.091,0,0,0,.935,2.485,3.464,3.464,0,0,0,4.423,0,3.093,3.093,0,0,0,.935-2.485V50.01a3.094,3.094,0,0,0-.935-2.485,3.464,3.464,0,0,0-4.423,0,3.092,3.092,0,0,0-.935,2.485Z" transform="translate(-110.909 -13.744)" fill="#272727"/>
    <path id="Path_442" data-name="Path 442" d="M366.512,74.949V42.482h7.479q8.208,0,8.208,9.531a12.011,12.011,0,0,1-.889,4.878,6.9,6.9,0,0,1-3.124,3.238l5.016,14.82h-4.924l-4.332-13.862h-2.782V74.949Zm4.652-28.09V56.983h2.645a4.677,4.677,0,0,0,1.961-.342,2.662,2.662,0,0,0,1.14-.98,4.449,4.449,0,0,0,.5-1.573,17.233,17.233,0,0,0,0-4.332,4.339,4.339,0,0,0-.547-1.619Q376,46.86,373.58,46.859Z" transform="translate(-119.72 -13.877)" fill="#272727"/>
    <path id="Path_443" data-name="Path 443" d="M392.319,50.01A8.3,8.3,0,0,1,393,46.545a7.318,7.318,0,0,1,1.824-2.508,7.72,7.72,0,0,1,2.485-1.46,8.276,8.276,0,0,1,8.14,1.46,7.638,7.638,0,0,1,1.779,2.508,8.3,8.3,0,0,1,.683,3.465V67.155a8.228,8.228,0,0,1-.683,3.511,7.247,7.247,0,0,1-1.779,2.417,7.816,7.816,0,0,1-2.531,1.5,8.09,8.09,0,0,1-5.609,0,7.312,7.312,0,0,1-2.485-1.5A6.958,6.958,0,0,1,393,70.666a8.228,8.228,0,0,1-.684-3.511Zm4.652,17.146a3.091,3.091,0,0,0,.934,2.485,3.464,3.464,0,0,0,4.423,0,3.093,3.093,0,0,0,.935-2.485V50.01a3.094,3.094,0,0,0-.935-2.485,3.464,3.464,0,0,0-4.423,0,3.092,3.092,0,0,0-.934,2.485Z" transform="translate(-128.15 -13.744)" fill="#272727"/>
  </g>
</svg>
