<svg id="Group_919" data-name="Group 919" xmlns="http://www.w3.org/2000/svg" xmlns:xlink="http://www.w3.org/1999/xlink" width="222.604" height="107.527" viewBox="0 0 222.604 107.527">
  <defs>
    <clipPath id="clip-path">
      <rect id="Rectangle_23" data-name="Rectangle 23" width="222.604" height="107.527" fill="#272727"/>
    </clipPath>
  </defs>
  <g id="Group_918" data-name="Group 918" clip-path="url(#clip-path)">
    <path id="Path_468" data-name="Path 468" d="M112.9,43.586a3.365,3.365,0,0,0,1.418,1.227,4.243,4.243,0,0,0,1.781.394,3.643,3.643,0,0,0,1.045-.16,3.192,3.192,0,0,0,.971-.48,2.629,2.629,0,0,0,.714-.79,2.1,2.1,0,0,0,.277-1.088,1.629,1.629,0,0,0-.554-1.333,4.784,4.784,0,0,0-1.376-.768q-.821-.309-1.792-.6a7.28,7.28,0,0,1-1.791-.8,4.371,4.371,0,0,1-1.376-1.376,4.279,4.279,0,0,1-.554-2.335,4.027,4.027,0,0,1,1.194-2.773,5,5,0,0,1,1.589-1.034,5.908,5.908,0,0,1,2.335-.416,8.18,8.18,0,0,1,2.368.341,4.069,4.069,0,0,1,1.983,1.386L119.472,34.5a2.763,2.763,0,0,0-1.088-.959,3.438,3.438,0,0,0-1.6-.363,3.87,3.87,0,0,0-1.418.224,2.533,2.533,0,0,0-.906.576,2.036,2.036,0,0,0-.48.757,2.316,2.316,0,0,0-.138.747,1.9,1.9,0,0,0,.554,1.471,4.3,4.3,0,0,0,1.376.832,16.671,16.671,0,0,0,1.792.577,7.656,7.656,0,0,1,1.791.714,4.175,4.175,0,0,1,1.376,1.237,3.639,3.639,0,0,1,.555,2.144,4.511,4.511,0,0,1-.416,1.962,4.354,4.354,0,0,1-1.12,1.472,4.987,4.987,0,0,1-1.663.917,6.441,6.441,0,0,1-2.048.319,7.438,7.438,0,0,1-2.751-.512,4.517,4.517,0,0,1-2.069-1.578Z" transform="translate(-31.953 -8.981)" fill="#272727"/>
    <path id="Path_469" data-name="Path 469" d="M148.658,38.3V45.74a6.871,6.871,0,0,1-1.259.6,13.373,13.373,0,0,1-1.461.437,12.475,12.475,0,0,1-1.535.267,13.433,13.433,0,0,1-1.461.086,8.679,8.679,0,0,1-3.423-.64,7.341,7.341,0,0,1-4.116-4.255,8.524,8.524,0,0,1-.544-3.039,8.279,8.279,0,0,1,.587-3.135,7.718,7.718,0,0,1,1.621-2.517,7.394,7.394,0,0,1,2.484-1.675,8.146,8.146,0,0,1,3.178-.607,9.4,9.4,0,0,1,3.412.522,6.28,6.28,0,0,1,2.218,1.44l-1.45,1.557a5.364,5.364,0,0,0-1.983-1.247,6.822,6.822,0,0,0-2.2-.352,5.487,5.487,0,0,0-4.138,1.77,5.673,5.673,0,0,0-1.151,1.909,6.681,6.681,0,0,0-.406,2.336,6.233,6.233,0,0,0,.448,2.378,5.9,5.9,0,0,0,1.237,1.909,5.71,5.71,0,0,0,1.855,1.269,5.823,5.823,0,0,0,2.325.458,10.031,10.031,0,0,0,2.058-.2,5.749,5.749,0,0,0,1.653-.587v-4.2h-3.348V38.3Z" transform="translate(-38.745 -8.981)" fill="#272727"/>
    <path id="Path_470" data-name="Path 470" d="M116.914,64.843h1.855l6.463,15.1h-2.389l-1.514-3.732h-7.187l-1.493,3.732H110.26Zm3.668,9.577-2.815-6.932h-.043l-2.858,6.932Z" transform="translate(-31.678 -18.63)" fill="#272727"/>
    <path id="Path_471" data-name="Path 471" d="M140.553,76.632a3.365,3.365,0,0,0,1.418,1.227,4.243,4.243,0,0,0,1.781.394,3.643,3.643,0,0,0,1.045-.16,3.192,3.192,0,0,0,.971-.48,2.629,2.629,0,0,0,.714-.79,2.1,2.1,0,0,0,.277-1.088A1.629,1.629,0,0,0,146.2,74.4a4.785,4.785,0,0,0-1.376-.768q-.821-.309-1.792-.6a7.279,7.279,0,0,1-1.791-.8,4.371,4.371,0,0,1-1.376-1.376,4.279,4.279,0,0,1-.554-2.335,4.027,4.027,0,0,1,1.194-2.773A5,5,0,0,1,142.1,64.72a5.908,5.908,0,0,1,2.335-.416,8.18,8.18,0,0,1,2.368.341,4.069,4.069,0,0,1,1.983,1.386l-1.663,1.514a2.763,2.763,0,0,0-1.088-.959,3.438,3.438,0,0,0-1.6-.363,3.871,3.871,0,0,0-1.418.224,2.534,2.534,0,0,0-.906.576,2.036,2.036,0,0,0-.48.757,2.316,2.316,0,0,0-.138.747A1.9,1.9,0,0,0,142.046,70a4.3,4.3,0,0,0,1.376.832,16.674,16.674,0,0,0,1.792.577,7.655,7.655,0,0,1,1.791.714,4.175,4.175,0,0,1,1.376,1.237,3.638,3.638,0,0,1,.555,2.144,4.51,4.51,0,0,1-.416,1.962,4.354,4.354,0,0,1-1.12,1.472,4.987,4.987,0,0,1-1.663.917,6.441,6.441,0,0,1-2.048.319,7.438,7.438,0,0,1-2.751-.512,4.517,4.517,0,0,1-2.069-1.578Z" transform="translate(-39.897 -18.475)" fill="#272727"/>
    <path id="Path_472" data-name="Path 472" d="M163.775,76.632a3.365,3.365,0,0,0,1.418,1.227,4.243,4.243,0,0,0,1.781.394,3.643,3.643,0,0,0,1.045-.16,3.193,3.193,0,0,0,.971-.48,2.629,2.629,0,0,0,.714-.79,2.1,2.1,0,0,0,.277-1.088,1.63,1.63,0,0,0-.554-1.333,4.785,4.785,0,0,0-1.376-.768q-.821-.309-1.792-.6a7.28,7.28,0,0,1-1.791-.8,4.371,4.371,0,0,1-1.376-1.376,4.279,4.279,0,0,1-.554-2.335,4.027,4.027,0,0,1,1.194-2.773,5,5,0,0,1,1.589-1.034,5.908,5.908,0,0,1,2.335-.416,8.18,8.18,0,0,1,2.368.341,4.069,4.069,0,0,1,1.983,1.386l-1.663,1.514a2.763,2.763,0,0,0-1.088-.959,3.438,3.438,0,0,0-1.6-.363,3.87,3.87,0,0,0-1.418.224,2.533,2.533,0,0,0-.906.576,2.036,2.036,0,0,0-.48.757,2.317,2.317,0,0,0-.138.747A1.9,1.9,0,0,0,165.268,70a4.3,4.3,0,0,0,1.376.832,16.671,16.671,0,0,0,1.792.577,7.655,7.655,0,0,1,1.791.714,4.175,4.175,0,0,1,1.376,1.237,3.638,3.638,0,0,1,.555,2.144,4.511,4.511,0,0,1-.416,1.962,4.354,4.354,0,0,1-1.12,1.472,4.987,4.987,0,0,1-1.663.917,6.441,6.441,0,0,1-2.048.319,7.438,7.438,0,0,1-2.751-.512,4.517,4.517,0,0,1-2.069-1.578Z" transform="translate(-46.569 -18.475)" fill="#272727"/>
    <path id="Path_473" data-name="Path 473" d="M187.047,64.843h9.747v1.92h-7.7v4.5h7.166v1.919h-7.166v4.841h8.083v1.919h-10.13Z" transform="translate(-53.739 -18.63)" fill="#272727"/>
    <path id="Path_474" data-name="Path 474" d="M214.383,66.763H209.52v-1.92h11.773v1.92H216.43v13.18h-2.048Z" transform="translate(-60.196 -18.63)" fill="#272727"/>
    <path id="Path_475" data-name="Path 475" d="M112.953,97.889h5.31a6.21,6.21,0,0,1,2.389.395,4.067,4.067,0,0,1,1.482,1,3.43,3.43,0,0,1,.757,1.366,5.391,5.391,0,0,1,.213,1.46,3.885,3.885,0,0,1-.256,1.4,3.943,3.943,0,0,1-.736,1.215,4.2,4.2,0,0,1-1.173.917,4.088,4.088,0,0,1-1.546.459l4.286,6.888h-2.559l-3.839-6.654H115v6.654h-2.048ZM115,104.543h2.687a7.3,7.3,0,0,0,1.184-.1,3.181,3.181,0,0,0,1.046-.352,1.924,1.924,0,0,0,.735-.736,2.946,2.946,0,0,0,0-2.5,1.93,1.93,0,0,0-.735-.736,3.181,3.181,0,0,0-1.046-.351,7.3,7.3,0,0,0-1.184-.1H115Z" transform="translate(-32.452 -28.124)" fill="#272727"/>
    <path id="Path_476" data-name="Path 476" d="M137.82,97.889h9.747v1.92h-7.7v4.5h7.166v1.919h-7.166v4.841h8.083v1.919H137.82Z" transform="translate(-39.596 -28.124)" fill="#272727"/>
    <path id="Path_477" data-name="Path 477" d="M172.824,101a4.23,4.23,0,0,0-1.621-1.28,4.841,4.841,0,0,0-2.026-.448,5.431,5.431,0,0,0-2.314.48,5.323,5.323,0,0,0-1.77,1.312,5.981,5.981,0,0,0-1.141,1.951,7,7,0,0,0-.4,2.4,6.621,6.621,0,0,0,.383,2.261,5.657,5.657,0,0,0,1.109,1.877,5.186,5.186,0,0,0,1.77,1.279,5.719,5.719,0,0,0,2.368.469,4.712,4.712,0,0,0,2.282-.532,4.913,4.913,0,0,0,1.663-1.493l1.728,1.3a6.826,6.826,0,0,1-.6.671,6.007,6.007,0,0,1-1.13.875,8.018,8.018,0,0,1-1.7.768,7.258,7.258,0,0,1-2.293.331,7.456,7.456,0,0,1-3.231-.683,7.91,7.91,0,0,1-4.532-7.123,8.859,8.859,0,0,1,.576-3.231,7.637,7.637,0,0,1,1.611-2.559,7.189,7.189,0,0,1,2.484-1.674,8.315,8.315,0,0,1,3.2-.6,7.826,7.826,0,0,1,2.932.576,5.466,5.466,0,0,1,2.357,1.77Z" transform="translate(-46.362 -27.969)" fill="#272727"/>
    <path id="Path_478" data-name="Path 478" d="M196.892,113.218a8.136,8.136,0,0,1-3.178-.608,7.389,7.389,0,0,1-2.484-1.674,7.719,7.719,0,0,1-1.621-2.517,8.672,8.672,0,0,1,0-6.27,7.734,7.734,0,0,1,1.621-2.517,7.4,7.4,0,0,1,2.484-1.674,8.61,8.61,0,0,1,6.356,0,7.406,7.406,0,0,1,2.484,1.674,7.746,7.746,0,0,1,1.621,2.517,8.672,8.672,0,0,1,0,6.27,7.731,7.731,0,0,1-1.621,2.517,7.4,7.4,0,0,1-2.484,1.674,8.136,8.136,0,0,1-3.178.608m0-1.919a5.484,5.484,0,0,0,4.137-1.77,5.675,5.675,0,0,0,1.152-1.909,6.928,6.928,0,0,0,0-4.671,5.682,5.682,0,0,0-1.152-1.909,5.655,5.655,0,0,0-8.274,0,5.67,5.67,0,0,0-1.152,1.909,6.928,6.928,0,0,0,0,4.671,5.663,5.663,0,0,0,1.152,1.909,5.484,5.484,0,0,0,4.137,1.77" transform="translate(-54.307 -27.969)" fill="#272727"/>
    <path id="Path_479" data-name="Path 479" d="M218.916,97.889h2.368l4.436,12.285h.043l4.607-12.285h2.239l-5.95,15.1h-1.92Z" transform="translate(-62.895 -28.124)" fill="#272727"/>
    <path id="Path_480" data-name="Path 480" d="M247.255,97.889H257v1.92h-7.7v4.5h7.166v1.919H249.3v4.841h8.083v1.919h-10.13Z" transform="translate(-71.037 -28.124)" fill="#272727"/>
    <path id="Path_481" data-name="Path 481" d="M272.121,97.889h5.31a6.208,6.208,0,0,1,2.389.395,4.067,4.067,0,0,1,1.482,1,3.43,3.43,0,0,1,.757,1.366,5.364,5.364,0,0,1,.213,1.46,3.9,3.9,0,0,1-.255,1.4,3.959,3.959,0,0,1-.736,1.215,4.193,4.193,0,0,1-1.173.917,4.088,4.088,0,0,1-1.546.459l4.286,6.888H280.29l-3.839-6.654h-2.282v6.654h-2.048Zm2.048,6.654h2.686a7.3,7.3,0,0,0,1.184-.1,3.183,3.183,0,0,0,1.045-.352,1.923,1.923,0,0,0,.735-.736,2.939,2.939,0,0,0,0-2.5,1.93,1.93,0,0,0-.735-.736,3.182,3.182,0,0,0-1.045-.351,7.3,7.3,0,0,0-1.184-.1h-2.686Z" transform="translate(-78.181 -28.124)" fill="#272727"/>
    <path id="Path_482" data-name="Path 482" d="M299.144,106.548l-5.716-8.659h2.623l4.116,6.633,4.245-6.633h2.5l-5.716,8.659v6.441h-2.048Z" transform="translate(-84.303 -28.124)" fill="#272727"/>
    <path id="Path_483" data-name="Path 483" d="M61.8,33.609V25.622c0-7.464-3.815-14.508-10.467-19.325A34.988,34.988,0,0,0,30.9,0,34.992,34.992,0,0,0,10.466,6.3C3.814,11.115,0,18.158,0,25.622V81.906c0,7.464,3.814,14.508,10.466,19.325a34.988,34.988,0,0,0,20.432,6.3,34.985,34.985,0,0,0,20.431-6.3C57.981,96.413,61.8,89.37,61.8,81.906v-39.9H31.921v7.558H54.178v32.3a14.759,14.759,0,0,1-2.07,7.51,18.692,18.692,0,0,1-5.249,5.691,24.72,24.72,0,0,1-7.3,3.588,30.044,30.044,0,0,1-17.321,0,24.7,24.7,0,0,1-7.3-3.588,18.694,18.694,0,0,1-5.25-5.692,14.766,14.766,0,0,1-2.069-7.508V65.521h8.4V81.863a6.48,6.48,0,0,0,.929,3.284,10.382,10.382,0,0,0,2.929,3.123A16.34,16.34,0,0,0,24.7,90.624a21.66,21.66,0,0,0,12.387,0,16.34,16.34,0,0,0,4.831-2.354,10.377,10.377,0,0,0,2.928-3.122,6.477,6.477,0,0,0,.929-3.285v-23.9H31.921v7.558h6.361V81.514a4,4,0,0,1-.747.674A11.747,11.747,0,0,1,30.9,84.013a11.751,11.751,0,0,1-6.638-1.825,4.008,4.008,0,0,1-.746-.674V57.963H7.618v-32.3a14.77,14.77,0,0,1,2.069-7.509,18.712,18.712,0,0,1,5.25-5.692,24.7,24.7,0,0,1,7.3-3.588,30.054,30.054,0,0,1,17.322,0,24.7,24.7,0,0,1,7.3,3.588,18.7,18.7,0,0,1,5.25,5.691,14.765,14.765,0,0,1,2.07,7.51v7.943Z" transform="translate(0 0)" fill="#272727"/>
    <path id="Path_484" data-name="Path 484" d="M52.237,40.058V32.115a6.48,6.48,0,0,0-.929-3.285,10.378,10.378,0,0,0-2.928-3.122,16.35,16.35,0,0,0-4.831-2.355,21.658,21.658,0,0,0-12.387,0,16.358,16.358,0,0,0-4.831,2.354A10.379,10.379,0,0,0,23.4,28.83a6.477,6.477,0,0,0-.929,3.285v23.9h7.5V32.464a4.022,4.022,0,0,1,.745-.674,11.753,11.753,0,0,1,6.638-1.825,11.755,11.755,0,0,1,6.638,1.825,4.021,4.021,0,0,1,.745.674v7.594Z" transform="translate(-6.457 -6.45)" fill="#272727"/>
  </g>
</svg>
