<svg id="Group_925" data-name="Group 925" xmlns="http://www.w3.org/2000/svg" xmlns:xlink="http://www.w3.org/1999/xlink" width="249.781" height="129.95" viewBox="0 0 249.781 129.95">
  <defs>
    <clipPath id="clip-path">
      <rect id="Rectangle_34" data-name="Rectangle 34" width="249.781" height="129.95" fill="#272727"/>
    </clipPath>
  </defs>
  <g id="Group_924" data-name="Group 924" clip-path="url(#clip-path)">
    <path id="Path_493" data-name="Path 493" d="M146.427,41.13l-9.474-15.177-1.132,4.655q-.319,1.314-.717,2.588l-8.8-16.131L113.334,36.036l-2.008-1.916L90.855,60.434A38.756,38.756,0,0,0,95.3,67.023a56.948,56.948,0,0,0,24.614-8.254,44.126,44.126,0,0,0,18.523-22.826l7.334,11.75,1.674-1.772,10.58,16.1a38.3,38.3,0,0,0,2.127-4.1L148.016,39.447ZM117.769,55.357A52.991,52.991,0,0,1,93.886,63.1L111.77,40.115l2.214,2.114,11.931-17.455L133.2,38.121a40.512,40.512,0,0,1-15.43,17.236" fill="#272727"/>
    <path id="Path_494" data-name="Path 494" d="M86.331,42.326a38.56,38.56,0,1,1,73.823,15.593L162.57,61.6a42.329,42.329,0,1,0-74.223,2.063l2.509-3.225a38.319,38.319,0,0,1-4.525-18.108" fill="#272727"/>
    <path id="Path_495" data-name="Path 495" d="M90.856,60.434l-2.509,3.225a42.47,42.47,0,0,0,2.387,3.632q2.289-.043,4.568-.268a38.738,38.738,0,0,1-4.446-6.589" fill="#272727"/>
    <path id="Path_496" data-name="Path 496" d="M160.153,57.919a38.567,38.567,0,0,1-2.126,4.1l2.274,3.461a42.348,42.348,0,0,0,2.268-3.888Z" fill="#272727"/>
    <path id="Path_497" data-name="Path 497" d="M20.758,103.216H17.7a1.309,1.309,0,0,1-.838-.257,1.6,1.6,0,0,1-.486-.64l-1.589-4.34H5.973l-1.589,4.34a1.418,1.418,0,0,1-.456.617,1.273,1.273,0,0,1-.839.28H0L8.371,81.943H12.4ZM6.988,95.183H13.77l-2.589-7.076q-.192-.471-.4-1.111t-.413-1.39q-.206.75-.4,1.4t-.39,1.133Z" fill="#272727"/>
    <path id="Path_498" data-name="Path 498" d="M26.923,99.95h8.5v3.266H22.966V81.942h3.957Z" fill="#272727"/>
    <path id="Path_499" data-name="Path 499" d="M56.479,103.216h-3.06a1.309,1.309,0,0,1-.838-.257,1.6,1.6,0,0,1-.486-.64l-1.589-4.34H41.694l-1.589,4.34a1.418,1.418,0,0,1-.456.617,1.272,1.272,0,0,1-.839.28H35.721l8.371-21.273h4.031Zm-13.77-8.033h6.782L46.9,88.107q-.192-.471-.4-1.111t-.413-1.39q-.205.75-.4,1.4t-.39,1.133Z" fill="#272727"/>
    <path id="Path_500" data-name="Path 500" d="M70.014,85.811a1.35,1.35,0,0,1-.375.449.839.839,0,0,1-.493.14,1.269,1.269,0,0,1-.669-.228c-.241-.152-.527-.321-.861-.508a7.112,7.112,0,0,0-1.17-.508,4.94,4.94,0,0,0-1.581-.228,4.736,4.736,0,0,0-1.442.2,3.039,3.039,0,0,0-1.037.552,2.21,2.21,0,0,0-.626.846,2.78,2.78,0,0,0-.2,1.081,1.878,1.878,0,0,0,.419,1.251,3.514,3.514,0,0,0,1.11.853,10.243,10.243,0,0,0,1.575.633q.882.279,1.809.6a17.223,17.223,0,0,1,1.81.735,6.215,6.215,0,0,1,1.574,1.06A4.792,4.792,0,0,1,70.963,94.3a5.433,5.433,0,0,1,.419,2.251,7.345,7.345,0,0,1-.492,2.7,6.25,6.25,0,0,1-1.442,2.192,6.792,6.792,0,0,1-2.317,1.471,8.535,8.535,0,0,1-3.134.537,10.059,10.059,0,0,1-2-.2,10.427,10.427,0,0,1-1.89-.566,10.051,10.051,0,0,1-1.7-.883,8.2,8.2,0,0,1-1.412-1.147l1.162-1.9a1.228,1.228,0,0,1,.383-.345.953.953,0,0,1,.5-.141,1.4,1.4,0,0,1,.794.3q.427.3,1.015.669a7.947,7.947,0,0,0,1.376.67,5.294,5.294,0,0,0,1.891.3,3.887,3.887,0,0,0,2.619-.8,2.883,2.883,0,0,0,.926-2.3,2.14,2.14,0,0,0-.419-1.368,3.388,3.388,0,0,0-1.111-.89,8.343,8.343,0,0,0-1.574-.611q-.882-.249-1.795-.544a15.605,15.605,0,0,1-1.8-.706,5.815,5.815,0,0,1-1.574-1.074,4.9,4.9,0,0,1-1.111-1.655,6.3,6.3,0,0,1-.419-2.45,5.881,5.881,0,0,1,1.809-4.222,6.616,6.616,0,0,1,2.178-1.369,8,8,0,0,1,2.972-.514,9.931,9.931,0,0,1,3.472.588A7.82,7.82,0,0,1,71,83.943Z" fill="#272727"/>
    <path id="Path_501" data-name="Path 501" d="M78.782,90.858h.927a2.406,2.406,0,0,0,.927-.154,1.571,1.571,0,0,0,.633-.493l5.87-7.43a2.116,2.116,0,0,1,.772-.654,2.473,2.473,0,0,1,1.023-.184h3.413l-7.165,8.842a3.971,3.971,0,0,1-1.31,1.147,3.016,3.016,0,0,1,.876.493,3.893,3.893,0,0,1,.743.831l7.386,9.96H89.39a2.177,2.177,0,0,1-1.052-.2,1.648,1.648,0,0,1-.581-.581L81.739,94.58a1.579,1.579,0,0,0-.647-.558,2.72,2.72,0,0,0-1.059-.163H78.782v9.357H74.825V81.943h3.957Z" fill="#272727"/>
    <path id="Path_502" data-name="Path 502" d="M113.222,103.216h-3.06a1.309,1.309,0,0,1-.838-.257,1.6,1.6,0,0,1-.486-.64l-1.589-4.34H98.437l-1.589,4.34a1.418,1.418,0,0,1-.456.617,1.272,1.272,0,0,1-.839.28H92.464l8.371-21.273h4.031Zm-13.77-8.033h6.782l-2.589-7.076q-.192-.471-.4-1.111t-.413-1.39q-.206.75-.4,1.4t-.39,1.133Z" fill="#272727"/>
    <path id="Path_503" data-name="Path 503" d="M132.739,95.367q.213.507.419,1.022.205-.543.427-1.052t.471-.978l6.282-11.784a1.476,1.476,0,0,1,.25-.354.829.829,0,0,1,.287-.191,1.248,1.248,0,0,1,.345-.073c.128-.01.28-.015.457-.015h2.986v21.274h-3.487V89.475c0-.255.008-.535.022-.839s.037-.613.067-.927l-6.429,12.064a1.488,1.488,0,0,1-1.4.868h-.559a1.486,1.486,0,0,1-1.4-.868l-6.5-12.108q.044.486.073.949t.029.861v13.741H121.6V81.942h2.986q.266,0,.456.015a1.255,1.255,0,0,1,.346.073.758.758,0,0,1,.279.191,1.66,1.66,0,0,1,.243.354l6.371,11.813q.249.471.463.979" fill="#272727"/>
    <path id="Path_504" data-name="Path 504" d="M162.818,81.942V85.09h-9.445v5.9h7.444v3.045h-7.444v6.018h9.445v3.163H149.4V81.942Z" fill="#272727"/>
    <path id="Path_505" data-name="Path 505" d="M185.21,92.579a11.5,11.5,0,0,1-.78,4.3,9.646,9.646,0,0,1-5.59,5.561,11.987,11.987,0,0,1-4.414.78h-8.107V81.942h8.107a11.886,11.886,0,0,1,4.414.787,9.976,9.976,0,0,1,3.4,2.192,9.8,9.8,0,0,1,2.192,3.362,11.5,11.5,0,0,1,.78,4.3m-4.061,0a9.906,9.906,0,0,0-.463-3.141,6.508,6.508,0,0,0-1.339-2.354,5.859,5.859,0,0,0-2.119-1.479,7.269,7.269,0,0,0-2.8-.514h-4.134v14.976h4.134a7.269,7.269,0,0,0,2.8-.514,5.859,5.859,0,0,0,2.119-1.479,6.508,6.508,0,0,0,1.339-2.354,9.906,9.906,0,0,0,.463-3.141" fill="#272727"/>
    <rect id="Rectangle_31" data-name="Rectangle 31" width="3.972" height="21.274" transform="translate(188.697 81.942)" fill="#272727"/>
    <path id="Path_506" data-name="Path 506" d="M212.029,98.2a.79.79,0,0,1,.574.25l1.559,1.692a8.569,8.569,0,0,1-3.185,2.457,10.992,10.992,0,0,1-4.539.853,10.714,10.714,0,0,1-4.259-.809,9.368,9.368,0,0,1-3.229-2.251,9.844,9.844,0,0,1-2.052-3.443,12.909,12.909,0,0,1-.714-4.369,12.155,12.155,0,0,1,.765-4.391,10.082,10.082,0,0,1,2.155-3.436,9.771,9.771,0,0,1,3.318-2.244,11.013,11.013,0,0,1,4.266-.8,10.481,10.481,0,0,1,4.127.766,9.841,9.841,0,0,1,3.068,2l-1.324,1.84a1.226,1.226,0,0,1-.3.308.851.851,0,0,1-.508.133.975.975,0,0,1-.456-.125c-.157-.084-.328-.186-.515-.309s-.4-.257-.647-.4a5.3,5.3,0,0,0-.853-.4,7,7,0,0,0-1.126-.309,7.8,7.8,0,0,0-1.479-.125,6.569,6.569,0,0,0-2.611.507,5.643,5.643,0,0,0-2.037,1.473,6.761,6.761,0,0,0-1.325,2.352,9.864,9.864,0,0,0-.47,3.171,9.325,9.325,0,0,0,.507,3.192,7.027,7.027,0,0,0,1.376,2.354,5.854,5.854,0,0,0,2.045,1.464,6.307,6.307,0,0,0,2.53.508,10.981,10.981,0,0,0,1.464-.089,6.163,6.163,0,0,0,1.206-.279,5.4,5.4,0,0,0,1.045-.493,6.481,6.481,0,0,0,.978-.743,1.4,1.4,0,0,1,.31-.213.745.745,0,0,1,.338-.081" fill="#272727"/>
    <path id="Path_507" data-name="Path 507" d="M235.112,103.216h-3.06a1.309,1.309,0,0,1-.838-.257,1.6,1.6,0,0,1-.486-.64l-1.589-4.34h-8.812l-1.589,4.34a1.418,1.418,0,0,1-.456.617,1.272,1.272,0,0,1-.839.28h-3.089l8.371-21.273h4.031Zm-13.77-8.033h6.782l-2.589-7.076q-.192-.471-.4-1.111t-.413-1.39q-.206.75-.4,1.4t-.39,1.133Z" fill="#272727"/>
    <path id="Path_508" data-name="Path 508" d="M241.277,99.95h8.5v3.266H237.32V81.942h3.957Z" fill="#272727"/>
    <path id="Path_509" data-name="Path 509" d="M63.732,121.178a.2.2,0,0,1-.181.118.4.4,0,0,1-.234-.129,2.988,2.988,0,0,0-1-.574,3.044,3.044,0,0,0-1.846.021,1.963,1.963,0,0,0-.683.418,1.757,1.757,0,0,0-.418.613,1.912,1.912,0,0,0-.143.731,1.5,1.5,0,0,0,.212.829,1.91,1.91,0,0,0,.561.557,3.593,3.593,0,0,0,.791.387q.443.157.91.31t.909.338a3.292,3.292,0,0,1,.79.464,2.107,2.107,0,0,1,.561.686,2.172,2.172,0,0,1,.213,1.014,3.19,3.19,0,0,1-.213,1.167,2.729,2.729,0,0,1-.616.951,2.891,2.891,0,0,1-.99.637,3.576,3.576,0,0,1-1.337.233,3.776,3.776,0,0,1-1.679-.344,3.969,3.969,0,0,1-1.234-.944l.195-.307a.245.245,0,0,1,.2-.1.281.281,0,0,1,.16.083l.237.206c.093.081.2.169.334.264a2.689,2.689,0,0,0,.453.265,3.083,3.083,0,0,0,1.352.289,2.9,2.9,0,0,0,1.045-.177,2.3,2.3,0,0,0,.776-.484,2.054,2.054,0,0,0,.485-.728,2.44,2.44,0,0,0,.167-.9,1.587,1.587,0,0,0-.213-.86,1.818,1.818,0,0,0-.56-.565,3.669,3.669,0,0,0-.791-.379q-.442-.155-.909-.3t-.909-.327a3.142,3.142,0,0,1-.791-.464,2.124,2.124,0,0,1-.561-.7,2.33,2.33,0,0,1-.213-1.056,2.491,2.491,0,0,1,.189-.955,2.367,2.367,0,0,1,.55-.811,2.7,2.7,0,0,1,.9-.565,3.277,3.277,0,0,1,1.216-.212,3.672,3.672,0,0,1,1.376.244,3.308,3.308,0,0,1,1.111.745Z" fill="#272727"/>
    <path id="Path_510" data-name="Path 510" d="M72.692,125.867v3.971h-.718V119.98h2.551a3.915,3.915,0,0,1,2.616.759,2.708,2.708,0,0,1,.881,2.167,2.867,2.867,0,0,1-.244,1.191,2.691,2.691,0,0,1-.7.938,3.239,3.239,0,0,1-1.1.613,4.539,4.539,0,0,1-1.456.219Zm0-.571h1.833a3.518,3.518,0,0,0,1.163-.181,2.579,2.579,0,0,0,.874-.5,2.176,2.176,0,0,0,.551-.756,2.345,2.345,0,0,0,.191-.951,2.208,2.208,0,0,0-.7-1.749,3.079,3.079,0,0,0-2.083-.613H72.692Z" fill="#272727"/>
    <path id="Path_511" data-name="Path 511" d="M91.51,119.98v.592H86.32v3.986h4.319v.578H86.32v4.111h5.2l-.014.592H85.6V119.98Z" fill="#272727"/>
    <path id="Path_512" data-name="Path 512" d="M106.149,128.18a.159.159,0,0,1,.118.049l.279.3a4.689,4.689,0,0,1-.665.589,4.089,4.089,0,0,1-.788.446,4.553,4.553,0,0,1-.94.285,5.774,5.774,0,0,1-1.126.1,4.8,4.8,0,0,1-1.877-.359,4.2,4.2,0,0,1-1.467-1.017,4.612,4.612,0,0,1-.951-1.592,6.076,6.076,0,0,1-.338-2.076,5.767,5.767,0,0,1,.349-2.049,4.7,4.7,0,0,1,.975-1.592,4.338,4.338,0,0,1,1.5-1.031,4.985,4.985,0,0,1,1.937-.366,4.778,4.778,0,0,1,1.791.313,4.836,4.836,0,0,1,1.421.885l-.216.314a.194.194,0,0,1-.174.084.569.569,0,0,1-.272-.154,3.722,3.722,0,0,0-.522-.338,4.473,4.473,0,0,0-.833-.337,4.1,4.1,0,0,0-1.195-.154,4.231,4.231,0,0,0-1.634.307,3.609,3.609,0,0,0-1.275.877,4.049,4.049,0,0,0-.832,1.394,5.87,5.87,0,0,0,0,3.714,4.066,4.066,0,0,0,.832,1.389,3.6,3.6,0,0,0,1.251.872,3.982,3.982,0,0,0,1.558.3,5.768,5.768,0,0,0,.943-.07,3.68,3.68,0,0,0,.764-.209,3.5,3.5,0,0,0,.648-.341,4.824,4.824,0,0,0,.591-.475.422.422,0,0,1,.07-.044.155.155,0,0,1,.07-.018" fill="#272727"/>
    <rect id="Rectangle_32" data-name="Rectangle 32" width="0.718" height="9.859" transform="translate(114.028 119.98)" fill="#272727"/>
    <path id="Path_513" data-name="Path 513" d="M130.729,129.839h-.551a.246.246,0,0,1-.16-.052.351.351,0,0,1-.1-.136l-1.157-2.864h-4.842l-1.157,2.864a.3.3,0,0,1-.1.132.255.255,0,0,1-.167.056h-.544l4.034-9.859h.7Zm-6.6-3.581h4.417l-2.006-4.982a4.828,4.828,0,0,1-.2-.585c-.032.111-.064.218-.1.32s-.065.193-.1.272Z" fill="#272727"/>
    <path id="Path_514" data-name="Path 514" d="M138.658,129.233h4.668v.606H137.94V119.98h.718Z" fill="#272727"/>
    <rect id="Rectangle_33" data-name="Rectangle 33" width="0.718" height="9.859" transform="translate(150.565 119.98)" fill="#272727"/>
    <path id="Path_515" data-name="Path 515" d="M164.555,121.178a.2.2,0,0,1-.181.118.4.4,0,0,1-.234-.129,2.988,2.988,0,0,0-1-.574,3.044,3.044,0,0,0-1.846.021,1.963,1.963,0,0,0-.683.418,1.757,1.757,0,0,0-.418.613,1.912,1.912,0,0,0-.143.731,1.5,1.5,0,0,0,.212.829,1.91,1.91,0,0,0,.561.557,3.593,3.593,0,0,0,.791.387q.442.157.91.31t.909.338a3.293,3.293,0,0,1,.79.464,2.106,2.106,0,0,1,.561.686,2.172,2.172,0,0,1,.213,1.014,3.19,3.19,0,0,1-.213,1.167,2.729,2.729,0,0,1-.616.951,2.892,2.892,0,0,1-.99.637,3.576,3.576,0,0,1-1.337.233,3.776,3.776,0,0,1-1.679-.344,3.969,3.969,0,0,1-1.234-.944l.195-.307a.245.245,0,0,1,.2-.1.281.281,0,0,1,.16.083l.237.206c.093.081.2.169.334.264a2.689,2.689,0,0,0,.453.265,3.083,3.083,0,0,0,1.352.289,2.9,2.9,0,0,0,1.045-.177,2.3,2.3,0,0,0,.776-.484,2.054,2.054,0,0,0,.485-.728,2.439,2.439,0,0,0,.167-.9,1.587,1.587,0,0,0-.213-.86,1.818,1.818,0,0,0-.56-.565,3.669,3.669,0,0,0-.791-.379q-.442-.155-.909-.3t-.909-.327a3.142,3.142,0,0,1-.791-.464,2.124,2.124,0,0,1-.561-.7,2.33,2.33,0,0,1-.213-1.056,2.491,2.491,0,0,1,.189-.955,2.367,2.367,0,0,1,.55-.811,2.7,2.7,0,0,1,.9-.565,3.277,3.277,0,0,1,1.216-.212,3.672,3.672,0,0,1,1.376.244,3.308,3.308,0,0,1,1.111.745Z" fill="#272727"/>
    <path id="Path_516" data-name="Path 516" d="M179.207,119.98v.606h-3.463v9.253h-.718v-9.253h-3.483v-.606Z" fill="#272727"/>
    <path id="Path_517" data-name="Path 517" d="M191.225,121.178a.2.2,0,0,1-.181.118.4.4,0,0,1-.234-.129,2.988,2.988,0,0,0-1-.574,3.044,3.044,0,0,0-1.846.021,1.963,1.963,0,0,0-.683.418,1.757,1.757,0,0,0-.418.613,1.912,1.912,0,0,0-.143.731,1.5,1.5,0,0,0,.212.829,1.91,1.91,0,0,0,.561.557,3.593,3.593,0,0,0,.791.387q.442.157.91.31t.909.338a3.293,3.293,0,0,1,.79.464,2.106,2.106,0,0,1,.561.686,2.172,2.172,0,0,1,.213,1.014,3.19,3.19,0,0,1-.213,1.167,2.729,2.729,0,0,1-.616.951,2.891,2.891,0,0,1-.99.637,3.576,3.576,0,0,1-1.337.233,3.776,3.776,0,0,1-1.679-.344,3.969,3.969,0,0,1-1.234-.944l.195-.307a.245.245,0,0,1,.2-.1.281.281,0,0,1,.16.083l.237.206c.093.081.2.169.334.264a2.689,2.689,0,0,0,.453.265,3.083,3.083,0,0,0,1.352.289,2.9,2.9,0,0,0,1.045-.177,2.3,2.3,0,0,0,.776-.484,2.054,2.054,0,0,0,.485-.728,2.44,2.44,0,0,0,.167-.9,1.587,1.587,0,0,0-.213-.86,1.818,1.818,0,0,0-.56-.565,3.669,3.669,0,0,0-.791-.379q-.442-.155-.909-.3t-.909-.327a3.142,3.142,0,0,1-.791-.464,2.124,2.124,0,0,1-.561-.7,2.331,2.331,0,0,1-.213-1.056,2.491,2.491,0,0,1,.189-.955,2.367,2.367,0,0,1,.55-.811,2.7,2.7,0,0,1,.895-.565,3.277,3.277,0,0,1,1.216-.212,3.672,3.672,0,0,1,1.376.244,3.308,3.308,0,0,1,1.111.745Z" fill="#272727"/>
  </g>
</svg>
