<svg id="Group_914" data-name="Group 914" xmlns="http://www.w3.org/2000/svg" xmlns:xlink="http://www.w3.org/1999/xlink" width="220.265" height="47.757" viewBox="0 0 220.265 47.757">
  <defs>
    <clipPath id="clip-path">
      <rect id="Rectangle_17" data-name="Rectangle 17" width="220.265" height="47.757" fill="#272727"/>
    </clipPath>
  </defs>
  <rect id="Rectangle_13" data-name="Rectangle 13" width="11.343" height="47.514" fill="#272727"/>
  <g id="Group_913" data-name="Group 913">
    <g id="Group_912" data-name="Group 912" clip-path="url(#clip-path)">
      <path id="Path_449" data-name="Path 449" d="M80.087,90.179V82.533a13.152,13.152,0,0,1-12.2,7.646C60.9,90.179,56.544,84.157,56.544,78c0-17.525,20.475-20.639,34.887-20.639V90.179ZM68.6,75.9a2.952,2.952,0,0,0,3.21,3.179,6.931,6.931,0,0,0,3.424-1.014c3.5-2.1,4.851-6.292,4.851-10.015-4.209.61-11.486,2.842-11.486,7.85" transform="translate(-42.057 -42.665)" fill="#272727"/>
      <path id="Path_450" data-name="Path 450" d="M245.519,90.179h-8.348l-6.777-18.407-6.778,18.407h-8.347l-14.2-32.818h12.414l5.922,16.623L225.4,57.361h9.987l5.993,16.623L247.3,57.361h12.414Z" transform="translate(-149.556 -42.665)" fill="#272727"/>
      <rect id="Rectangle_14" data-name="Rectangle 14" width="11.343" height="32.818" transform="translate(142.057 14.696)" fill="#272727"/>
      <rect id="Rectangle_15" data-name="Rectangle 15" width="11.343" height="47.514" transform="translate(156.546)" fill="#272727"/>
      <rect id="Rectangle_16" data-name="Rectangle 16" width="11.343" height="47.514" transform="translate(171.035)" fill="#272727"/>
      <path id="Path_451" data-name="Path 451" d="M747.095,90.422V82.533a13.152,13.152,0,0,1-12.2,7.646c-6.991,0-11.343-6.022-11.343-12.179,0-17.525,20.475-20.639,34.887-20.639V90.422ZM735.609,75.9a2.953,2.953,0,0,0,3.21,3.179,6.928,6.928,0,0,0,3.424-1.014c3.5-2.1,4.851-6.292,4.851-10.015-4.208.61-11.486,2.842-11.486,7.85" transform="translate(-538.174 -42.665)" fill="#272727"/>
      <path id="Path_452" data-name="Path 452" d="M471.715,0,444.3,22.2l5.157-7.505H438.335V25.113h10.488l-10.488,22.4H465.09V37.169H454.6Z" transform="translate(-326.031 0)" fill="#272727"/>
    </g>
  </g>
</svg>
