<svg id="Group_979" data-name="Group 979" xmlns="http://www.w3.org/2000/svg" xmlns:xlink="http://www.w3.org/1999/xlink" width="259.683" height="67.903" viewBox="0 0 259.683 67.903">
  <defs>
    <clipPath id="clip-path">
      <rect id="Rectangle_98" data-name="Rectangle 98" width="259.683" height="67.903" fill="#272727"/>
    </clipPath>
  </defs>
  <rect id="Rectangle_95" data-name="Rectangle 95" width="5.17" height="27.69" transform="translate(63.256 12.485)" fill="#272727"/>
  <g id="Group_980" data-name="Group 980">
    <g id="Group_979-2" data-name="Group 979" clip-path="url(#clip-path)">
      <path id="Path_817" data-name="Path 817" d="M82.826,29.355v10.82H77.675V12.485H86.12a17.567,17.567,0,0,1,4.835.584,9.246,9.246,0,0,1,3.313,1.637,6.407,6.407,0,0,1,1.9,2.518,8.279,8.279,0,0,1,.613,3.227,8.382,8.382,0,0,1-.412,2.643,7.653,7.653,0,0,1-1.187,2.26,7.99,7.99,0,0,1-1.915,1.781,10.032,10.032,0,0,1-2.6,1.226,5.089,5.089,0,0,1,1.685,1.588l6.932,10.226H94.641a2.04,2.04,0,0,1-1.915-1.034L86.9,30.275a2.04,2.04,0,0,0-.718-.709,2.52,2.52,0,0,0-1.159-.211Zm0-3.7h3.217a7.988,7.988,0,0,0,2.537-.364,4.905,4.905,0,0,0,1.782-1,4.039,4.039,0,0,0,1.044-1.522,5.276,5.276,0,0,0,.345-1.934A3.932,3.932,0,0,0,90.362,17.6a6.64,6.64,0,0,0-4.242-1.13H82.826Z" fill="#272727"/>
      <path id="Path_818" data-name="Path 818" d="M131.35,26.33a15.471,15.471,0,0,1-1.005,5.639,13.235,13.235,0,0,1-2.844,4.49,12.914,12.914,0,0,1-4.423,2.959,16.005,16.005,0,0,1-11.47,0,13.026,13.026,0,0,1-4.433-2.959,13.281,13.281,0,0,1-2.863-4.49A15.344,15.344,0,0,1,103.3,26.33a15.34,15.34,0,0,1,1.015-5.642,13.281,13.281,0,0,1,2.863-4.49,13.026,13.026,0,0,1,4.433-2.959,14.924,14.924,0,0,1,5.726-1.063,15.54,15.54,0,0,1,3.964.488,13.941,13.941,0,0,1,3.408,1.382,12.608,12.608,0,0,1,2.786,2.164,13.152,13.152,0,0,1,2.1,2.844,13.944,13.944,0,0,1,1.312,3.409,16.2,16.2,0,0,1,.45,3.868m-5.266,0a12.714,12.714,0,0,0-.613-4.088,8.748,8.748,0,0,0-1.743-3.073,7.461,7.461,0,0,0-2.748-1.934,10.259,10.259,0,0,0-7.3,0,7.554,7.554,0,0,0-2.757,1.934,8.674,8.674,0,0,0-1.752,3.073,12.714,12.714,0,0,0-.613,4.088,12.714,12.714,0,0,0,.613,4.088,8.574,8.574,0,0,0,1.752,3.064,7.6,7.6,0,0,0,2.757,1.924,10.259,10.259,0,0,0,7.3,0,7.516,7.516,0,0,0,2.748-1.924,8.662,8.662,0,0,0,1.743-3.064,12.714,12.714,0,0,0,.613-4.088" fill="#272727"/>
      <path id="Path_819" data-name="Path 819" d="M142.217,12.514a1.393,1.393,0,0,1,.421.115,1.443,1.443,0,0,1,.351.249,3.944,3.944,0,0,1,.386.431l14.516,18.536c-.041-.447-.07-.887-.1-1.321s-.035-.836-.035-1.206V12.485h4.535v27.69h-2.642a2.342,2.342,0,0,1-1.024-.2,2.455,2.455,0,0,1-.795-.68L143.376,20.853c.038.409.064.814.086,1.216s.026.769.026,1.1v17h-4.539V12.485h2.7a4.9,4.9,0,0,1,.568.029" fill="#272727"/>
      <path id="Path_820" data-name="Path 820" d="M186.27,17.522a1.776,1.776,0,0,1-.488.584,1.089,1.089,0,0,1-.641.182,1.653,1.653,0,0,1-.871-.3q-.47-.3-1.12-.661a9.167,9.167,0,0,0-1.522-.661,6.389,6.389,0,0,0-2.059-.3,6.151,6.151,0,0,0-1.877.259,3.943,3.943,0,0,0-1.35.718,2.876,2.876,0,0,0-.814,1.1,3.627,3.627,0,0,0-.268,1.407,2.443,2.443,0,0,0,.546,1.628,4.551,4.551,0,0,0,1.446,1.111,13.488,13.488,0,0,0,2.049.823q1.149.365,2.355.776a22.155,22.155,0,0,1,2.355.957,8.157,8.157,0,0,1,2.049,1.379,6.256,6.256,0,0,1,1.446,2.039,7.078,7.078,0,0,1,.546,2.93,9.553,9.553,0,0,1-.641,3.514,8.114,8.114,0,0,1-1.877,2.853,8.83,8.83,0,0,1-3.016,1.915,11.108,11.108,0,0,1-4.079.7,13.2,13.2,0,0,1-2.6-.259,13.693,13.693,0,0,1-2.461-.737,13.147,13.147,0,0,1-2.212-1.149,10.639,10.639,0,0,1-1.838-1.494l1.513-2.47a1.619,1.619,0,0,1,.5-.45,1.254,1.254,0,0,1,.651-.182,1.825,1.825,0,0,1,1.034.393q.555.393,1.321.871a10.351,10.351,0,0,0,1.79.871,6.875,6.875,0,0,0,2.461.393,5.051,5.051,0,0,0,3.409-1.044,3.748,3.748,0,0,0,1.206-3,2.783,2.783,0,0,0-.546-1.781,4.4,4.4,0,0,0-1.452-1.149,10.825,10.825,0,0,0-2.049-.8q-1.149-.326-2.336-.709a20,20,0,0,1-2.336-.919,7.58,7.58,0,0,1-2.049-1.4,6.373,6.373,0,0,1-1.451-2.151,8.208,8.208,0,0,1-.546-3.188,7.66,7.66,0,0,1,2.355-5.5,8.59,8.59,0,0,1,2.834-1.781,10.4,10.4,0,0,1,3.868-.67,12.913,12.913,0,0,1,4.519.766,10.2,10.2,0,0,1,3.529,2.147Z" fill="#272727"/>
      <rect id="Rectangle_96" data-name="Rectangle 96" width="5.17" height="27.69" transform="translate(195.596 12.485)" fill="#272727"/>
      <path id="Path_821" data-name="Path 821" d="M234.6,26.33a14.969,14.969,0,0,1-1.012,5.592,12.577,12.577,0,0,1-7.277,7.238,15.589,15.589,0,0,1-5.745,1.015H210.012V12.485h10.554a15.448,15.448,0,0,1,5.745,1.024,12.879,12.879,0,0,1,4.423,2.854,12.7,12.7,0,0,1,2.856,4.376,14.969,14.969,0,0,1,1.012,5.592m-5.279,0a12.883,12.883,0,0,0-.606-4.088,8.522,8.522,0,0,0-1.739-3.064,7.686,7.686,0,0,0-2.764-1.924,9.418,9.418,0,0,0-3.645-.67h-5.384V36.077h5.381a9.417,9.417,0,0,0,3.645-.67,7.686,7.686,0,0,0,2.764-1.924,8.518,8.518,0,0,0,1.739-3.065,12.883,12.883,0,0,0,.606-4.088" fill="#272727"/>
      <path id="Path_822" data-name="Path 822" d="M259.67,12.486v4.1h-12.3v7.679h9.693v3.964h-9.69v7.83h12.3v4.117H242.2V12.486Z" fill="#272727"/>
      <path id="Path_823" data-name="Path 823" d="M26.335,11.84a1.3,1.3,0,1,0,1.3,1.3,1.3,1.3,0,0,0-1.3-1.3M26.33,0A26.33,26.33,0,1,0,52.66,26.33,26.33,26.33,0,0,0,26.33,0M38.674,33.285c-1.063,1.689-5,7.216-11.257,7.81l-1.092,1.889L25.234,41.1c-6.253-.594-10.19-6.122-11.253-7.81l-1.446.766.2-5.41,4.589,2.876-1.414.75c1,1.529,4.354,6.051,9.342,6.651V21.24H20.235A1.809,1.809,0,0,1,18.786,22a1.84,1.84,0,0,1,0-3.68,1.8,1.8,0,0,1,1.449.76h5.013V16.411a3.463,3.463,0,1,1,2.164,0v2.665h5.012a1.807,1.807,0,0,1,1.449-.76,1.84,1.84,0,1,1,0,3.68,1.809,1.809,0,0,1-1.449-.756H27.407V38.918c5.008-.593,8.349-5.122,9.342-6.651l-1.414-.75,4.587-2.876.195,5.41Z" fill="#272727"/>
      <rect id="Rectangle_97" data-name="Rectangle 97" width="0.993" height="13.634" transform="translate(125.471 50.876)" fill="#272727"/>
      <path id="Path_824" data-name="Path 824" d="M129.9,64.511V54.923h.511a.256.256,0,0,1,.28.231v.008l.086,1.446a5.431,5.431,0,0,1,1.532-1.34,3.847,3.847,0,0,1,1.947-.5,3.622,3.622,0,0,1,1.392.252,2.573,2.573,0,0,1,1,.721,3.235,3.235,0,0,1,.6,1.136,5.218,5.218,0,0,1,.2,1.506v6.128h-.927V58.383a3.281,3.281,0,0,0-.616-2.116,2.269,2.269,0,0,0-1.88-.766,3.407,3.407,0,0,0-1.752.476,5,5,0,0,0-1.452,1.324v7.21Z" fill="#272727"/>
      <path id="Path_825" data-name="Path 825" d="M145.776,56.107a.244.244,0,0,1-.22.134.48.48,0,0,1-.271-.121,3.715,3.715,0,0,0-.44-.268,3.6,3.6,0,0,0-.677-.271,3.5,3.5,0,0,0-.983-.121,2.9,2.9,0,0,0-.951.15,2.3,2.3,0,0,0-.731.4,1.728,1.728,0,0,0-.469.581,1.588,1.588,0,0,0-.163.7,1.184,1.184,0,0,0,.233.753,1.978,1.978,0,0,0,.6.511,4.542,4.542,0,0,0,.852.364c.322.1.648.207.98.31s.654.217.977.341a3.611,3.611,0,0,1,.855.469,2.232,2.232,0,0,1,.6.683,1.97,1.97,0,0,1,.233.983,3.056,3.056,0,0,1-.223,1.168,2.605,2.605,0,0,1-.651.935,3.12,3.12,0,0,1-1.053.626,4.175,4.175,0,0,1-1.436.23,4.352,4.352,0,0,1-1.746-.322,4.927,4.927,0,0,1-1.309-.843l.211-.329a.352.352,0,0,1,.112-.115.321.321,0,0,1,.169-.038.517.517,0,0,1,.3.153,3.274,3.274,0,0,0,.479.332,4.107,4.107,0,0,0,.734.332,3.245,3.245,0,0,0,1.085.156,3.136,3.136,0,0,0,1.069-.169,2.159,2.159,0,0,0,.772-.46,1.9,1.9,0,0,0,.466-.677,2.193,2.193,0,0,0,.16-.827,1.325,1.325,0,0,0-.23-.8,1.958,1.958,0,0,0-.61-.539,4.005,4.005,0,0,0-.852-.377l-.977-.31c-.335-.1-.661-.214-.98-.338a3.579,3.579,0,0,1-.852-.46,2.2,2.2,0,0,1-.606-.68,1.936,1.936,0,0,1-.233-1,2.275,2.275,0,0,1,.223-.986,2.5,2.5,0,0,1,.629-.827,3.139,3.139,0,0,1,1-.571,3.981,3.981,0,0,1,1.321-.211,4.42,4.42,0,0,1,1.554.252,3.676,3.676,0,0,1,1.238.769Z" fill="#272727"/>
      <path id="Path_826" data-name="Path 826" d="M149.514,54.92v6.128a3.281,3.281,0,0,0,.616,2.116,2.269,2.269,0,0,0,1.88.766,3.414,3.414,0,0,0,1.746-.476,5.112,5.112,0,0,0,1.452-1.324V54.92h.926v9.587h-.511a.256.256,0,0,1-.277-.233v-.016l-.089-1.426a5.425,5.425,0,0,1-1.535,1.331,3.846,3.846,0,0,1-1.944.5,3.621,3.621,0,0,1-1.4-.252,2.605,2.605,0,0,1-.993-.721,3.32,3.32,0,0,1-.6-1.136,5.218,5.218,0,0,1-.2-1.506V54.92Z" fill="#272727"/>
      <path id="Path_827" data-name="Path 827" d="M159.286,64.51V54.925h.491a.331.331,0,0,1,.233.067.386.386,0,0,1,.086.23l.067,2.014a5.785,5.785,0,0,1,.507-1.044,3.28,3.28,0,0,1,.654-.779,2.7,2.7,0,0,1,.827-.485,2.941,2.941,0,0,1,1.018-.169,3.213,3.213,0,0,1,.587.054,1.507,1.507,0,0,1,.511.188l-.077.635a.19.19,0,0,1-.185.156,1.482,1.482,0,0,1-.348-.07,2.368,2.368,0,0,0-.622-.067,2.671,2.671,0,0,0-.993.172,2.353,2.353,0,0,0-.772.507,3.19,3.19,0,0,0-.59.83,7.34,7.34,0,0,0-.469,1.143v6.2Z" fill="#272727"/>
      <path id="Path_828" data-name="Path 828" d="M171.8,64.51a.329.329,0,0,1-.357-.268l-.134-1.226q-.4.383-.785.7a5.061,5.061,0,0,1-.814.52,4.242,4.242,0,0,1-.916.322,4.952,4.952,0,0,1-1.079.109,3.184,3.184,0,0,1-.954-.144,2.343,2.343,0,0,1-.823-.444,2.143,2.143,0,0,1-.581-.766,2.643,2.643,0,0,1-.214-1.12,2.006,2.006,0,0,1,.345-1.13,2.913,2.913,0,0,1,1.088-.906,7.26,7.26,0,0,1,1.9-.616,16.36,16.36,0,0,1,2.793-.268v-1a3.21,3.21,0,0,0-.574-2.049,2.045,2.045,0,0,0-1.7-.718,3.231,3.231,0,0,0-1.181.191,4.108,4.108,0,0,0-.823.424,5.773,5.773,0,0,0-.549.424.607.607,0,0,1-.357.2.287.287,0,0,1-.172-.051.426.426,0,0,1-.115-.124l-.166-.278a5.607,5.607,0,0,1,1.583-1.139,4.429,4.429,0,0,1,1.877-.386,3.392,3.392,0,0,1,1.35.249,2.482,2.482,0,0,1,.961.7,3.075,3.075,0,0,1,.571,1.107,5.126,5.126,0,0,1,.195,1.452v6.243ZM167.948,64a4,4,0,0,0,1.028-.121,3.79,3.79,0,0,0,.865-.335,4.151,4.151,0,0,0,.75-.517c.23-.2.456-.415.683-.645v-2.5a17.312,17.312,0,0,0-2.362.207,6.88,6.88,0,0,0-1.634.456,2.4,2.4,0,0,0-.945.689,1.472,1.472,0,0,0-.3.91,2.031,2.031,0,0,0,.16.836,1.639,1.639,0,0,0,.424.578,1.682,1.682,0,0,0,.61.332,2.468,2.468,0,0,0,.724.1" fill="#272727"/>
      <path id="Path_829" data-name="Path 829" d="M175.234,64.511V54.923h.511a.256.256,0,0,1,.28.231v.008l.086,1.446a5.445,5.445,0,0,1,1.532-1.34,3.847,3.847,0,0,1,1.947-.5,3.622,3.622,0,0,1,1.392.252,2.573,2.573,0,0,1,1,.721,3.235,3.235,0,0,1,.6,1.136,5.218,5.218,0,0,1,.2,1.506v6.128h-.93V58.383a3.281,3.281,0,0,0-.616-2.116,2.269,2.269,0,0,0-1.88-.766,3.407,3.407,0,0,0-1.752.476,5.009,5.009,0,0,0-1.446,1.324v7.21Z" fill="#272727"/>
      <path id="Path_830" data-name="Path 830" d="M192.283,56.2a.918.918,0,0,1-.093.083.185.185,0,0,1-.118.035.492.492,0,0,1-.262-.131,3.378,3.378,0,0,0-.444-.284,3.946,3.946,0,0,0-.7-.287,3.583,3.583,0,0,0-1.015-.128,3.508,3.508,0,0,0-1.471.294,3.013,3.013,0,0,0-1.085.843,3.792,3.792,0,0,0-.667,1.331,6.318,6.318,0,0,0-.227,1.752,6.216,6.216,0,0,0,.236,1.794,3.84,3.84,0,0,0,.667,1.315,2.846,2.846,0,0,0,1.053.814,3.242,3.242,0,0,0,1.369.281,3.476,3.476,0,0,0,2.41-.883.478.478,0,0,1,.287-.163.238.238,0,0,1,.191.1l.243.306a2.905,2.905,0,0,1-.559.543,3.849,3.849,0,0,1-.763.431,4.406,4.406,0,0,1-.919.284,5.015,5.015,0,0,1-1.037.1,4.157,4.157,0,0,1-1.672-.332,3.587,3.587,0,0,1-1.3-.964,4.508,4.508,0,0,1-.849-1.548,6.612,6.612,0,0,1-.3-2.081,6.518,6.518,0,0,1,.29-2,4.493,4.493,0,0,1,.846-1.561,3.81,3.81,0,0,1,1.366-1.015,4.416,4.416,0,0,1,1.845-.364,4.342,4.342,0,0,1,1.656.3,4.179,4.179,0,0,1,1.264.807Z" fill="#272727"/>
      <path id="Path_831" data-name="Path 831" d="M198.487,54.767a4.012,4.012,0,0,1,1.5.278,3.431,3.431,0,0,1,1.2.814,3.7,3.7,0,0,1,.8,1.318,5.006,5.006,0,0,1,.294,1.79.521.521,0,0,1-.057.29.218.218,0,0,1-.191.077h-6.968v.182a6.528,6.528,0,0,0,.249,1.9,3.883,3.883,0,0,0,.715,1.372,2.954,2.954,0,0,0,1.117.836,3.717,3.717,0,0,0,1.465.278,4.423,4.423,0,0,0,1.254-.16,4.678,4.678,0,0,0,.89-.354,5.387,5.387,0,0,0,.574-.357.651.651,0,0,1,.306-.16.216.216,0,0,1,.191.1l.252.31a2.566,2.566,0,0,1-.613.539,4.392,4.392,0,0,1-.846.428,6.3,6.3,0,0,1-1,.284,5.352,5.352,0,0,1-1.071.1,4.594,4.594,0,0,1-1.79-.338,3.78,3.78,0,0,1-1.388-1,4.575,4.575,0,0,1-.894-1.6,6.958,6.958,0,0,1-.313-2.173,5.95,5.95,0,0,1,.294-1.9,4.329,4.329,0,0,1,.849-1.5,3.9,3.9,0,0,1,1.36-.989,4.487,4.487,0,0,1,1.826-.354m.01.683a3.561,3.561,0,0,0-1.331.233,2.848,2.848,0,0,0-1.015.664,3.426,3.426,0,0,0-.7,1.04,4.742,4.742,0,0,0-.351,1.36h6.361a4.059,4.059,0,0,0-.217-1.382,2.886,2.886,0,0,0-.613-1.037,2.66,2.66,0,0,0-.938-.651,3.122,3.122,0,0,0-1.2-.227" fill="#272727"/>
      <path id="Path_832" data-name="Path 832" d="M219.168,64.281a8.244,8.244,0,0,1-2.6.386,8.066,8.066,0,0,1-2.914-.5,6.226,6.226,0,0,1-2.2-1.407,6.1,6.1,0,0,1-1.395-2.2,8.042,8.042,0,0,1-.488-2.869,8.174,8.174,0,0,1,.476-2.869,5.992,5.992,0,0,1,3.52-3.6,7.694,7.694,0,0,1,2.844-.5,9.171,9.171,0,0,1,1.443.109,6.5,6.5,0,0,1,1.229.313,5.717,5.717,0,0,1,1.06.511,7.1,7.1,0,0,1,.945.7l-.268.424a.28.28,0,0,1-.379.12.136.136,0,0,1-.026-.015,1.8,1.8,0,0,1-.418-.271,4.053,4.053,0,0,0-.744-.444,6.211,6.211,0,0,0-1.168-.412,6.62,6.62,0,0,0-1.7-.185,6.546,6.546,0,0,0-2.406.424,5.083,5.083,0,0,0-1.832,1.213,5.422,5.422,0,0,0-1.165,1.928,7.484,7.484,0,0,0-.409,2.556,7.632,7.632,0,0,0,.409,2.582,5.354,5.354,0,0,0,1.184,1.947,5.181,5.181,0,0,0,1.883,1.222,6.92,6.92,0,0,0,2.5.424,8.062,8.062,0,0,0,1.12-.073,6.046,6.046,0,0,0,.986-.217,6.874,6.874,0,0,0,.9-.351c.294-.137.59-.294.89-.466V59.085h-2.608a.262.262,0,0,1-.179-.067.213.213,0,0,1-.07-.153v-.539h3.76v4.845a8.324,8.324,0,0,1-2.18,1.111" fill="#272727"/>
      <path id="Path_833" data-name="Path 833" d="M224.013,64.51V54.925h.492a.331.331,0,0,1,.233.067.4.4,0,0,1,.086.23l.067,2.014a5.784,5.784,0,0,1,.507-1.044,3.2,3.2,0,0,1,.654-.779,2.744,2.744,0,0,1,.827-.485,2.941,2.941,0,0,1,1.018-.169,3.181,3.181,0,0,1,.584.054,1.481,1.481,0,0,1,.514.188l-.077.635a.19.19,0,0,1-.185.156,1.507,1.507,0,0,1-.351-.07,2.3,2.3,0,0,0-.619-.067,2.707,2.707,0,0,0-1,.172,2.367,2.367,0,0,0-.769.507,3.19,3.19,0,0,0-.59.83,7.339,7.339,0,0,0-.469,1.143v6.2Z" fill="#272727"/>
      <path id="Path_834" data-name="Path 834" d="M234.1,54.767a4.579,4.579,0,0,1,1.845.354,3.722,3.722,0,0,1,1.376,1,4.359,4.359,0,0,1,.849,1.557,7.117,7.117,0,0,1,0,4.069,4.379,4.379,0,0,1-.849,1.554,3.759,3.759,0,0,1-1.376.993,5.114,5.114,0,0,1-3.689,0,3.79,3.79,0,0,1-1.379-.993,4.376,4.376,0,0,1-.855-1.554,7.117,7.117,0,0,1,0-4.069,4.389,4.389,0,0,1,.855-1.557,3.771,3.771,0,0,1,1.379-1,4.579,4.579,0,0,1,1.845-.354m0,9.147a3.581,3.581,0,0,0,1.5-.294,2.887,2.887,0,0,0,1.069-.843,3.729,3.729,0,0,0,.642-1.324,7.272,7.272,0,0,0,0-3.476,3.775,3.775,0,0,0-.642-1.334,2.846,2.846,0,0,0-1.069-.852,3.891,3.891,0,0,0-3,0,2.831,2.831,0,0,0-1.072.852,3.816,3.816,0,0,0-.645,1.334,7.173,7.173,0,0,0,0,3.476,3.813,3.813,0,0,0,.645,1.324,2.868,2.868,0,0,0,1.072.843,3.565,3.565,0,0,0,1.5.294" fill="#272727"/>
      <path id="Path_835" data-name="Path 835" d="M241.874,54.92v6.128a3.281,3.281,0,0,0,.616,2.116,2.263,2.263,0,0,0,1.877.766,3.4,3.4,0,0,0,1.746-.476,5.112,5.112,0,0,0,1.452-1.324V54.92h.929v9.587h-.511a.258.258,0,0,1-.28-.234v-.015l-.086-1.427a5.441,5.441,0,0,1-1.542,1.332,3.842,3.842,0,0,1-1.94.5,3.621,3.621,0,0,1-1.4-.252,2.577,2.577,0,0,1-.993-.721,3.194,3.194,0,0,1-.6-1.136,5.113,5.113,0,0,1-.2-1.506V54.92Z" fill="#272727"/>
      <path id="Path_836" data-name="Path 836" d="M251.639,67.9V54.927h.511a.255.255,0,0,1,.28.225v.018l.089,1.481a5.084,5.084,0,0,1,1.49-1.376,3.673,3.673,0,0,1,1.918-.511,3.348,3.348,0,0,1,2.754,1.222,5.79,5.79,0,0,1,.986,3.67,6.791,6.791,0,0,1-.274,1.963,4.671,4.671,0,0,1-.811,1.58,3.846,3.846,0,0,1-1.309,1.056,4.01,4.01,0,0,1-1.79.383,3.755,3.755,0,0,1-1.685-.354,3.5,3.5,0,0,1-1.231-1.057V67.9Zm4.031-12.4a3.12,3.12,0,0,0-1.723.492,4.834,4.834,0,0,0-1.379,1.369v5.059a3.3,3.3,0,0,0,1.213,1.162,3.723,3.723,0,0,0,3.016.026,2.973,2.973,0,0,0,1.066-.874,3.958,3.958,0,0,0,.648-1.35,6.471,6.471,0,0,0,.217-1.73,5.109,5.109,0,0,0-.792-3.147,2.718,2.718,0,0,0-2.266-1" fill="#272727"/>
    </g>
  </g>
</svg>
