<svg xmlns="http://www.w3.org/2000/svg" xmlns:xlink="http://www.w3.org/1999/xlink" width="30.002" height="30.002" viewBox="0 0 30.002 30.002">
  <defs>
    <clipPath id="clip-path">
      <rect id="Rectangle_198" data-name="Rectangle 198" width="20.788" height="20.788" transform="translate(4.607 4.607)" fill="none"/>
    </clipPath>
    <clipPath id="clip-path-2">
      <rect id="Rectangle_199" data-name="Rectangle 199" width="30.002" height="30.002" transform="translate(0 0)" fill="none"/>
    </clipPath>
  </defs>
  <g id="Group_1283" data-name="Group 1283" transform="translate(0 0)">
    <g id="Group_1280" data-name="Group 1280">
      <g id="Group_1279" data-name="Group 1279" clip-path="url(#clip-path)">
        <path id="Path_1185" data-name="Path 1185" d="M18.865,15A3.865,3.865,0,1,1,15,11.137h0A3.864,3.864,0,0,1,18.865,15" fill="#1d1d1d"/>
        <path id="Path_1186" data-name="Path 1186" d="M15.379,9.879h-.754a.431.431,0,0,1-.432-.432V5.038a.431.431,0,0,1,.432-.431h.754a.431.431,0,0,1,.432.431V9.447a.432.432,0,0,1-.432.432" fill="#1d1d1d"/>
        <path id="Path_1187" data-name="Path 1187" d="M15.379,25.4h-.754a.431.431,0,0,1-.432-.432V20.555a.431.431,0,0,1,.432-.431h.754a.431.431,0,0,1,.432.431v4.409a.431.431,0,0,1-.432.432" fill="#1d1d1d"/>
        <path id="Path_1188" data-name="Path 1188" d="M11.646,11.112l-.534.534a.432.432,0,0,1-.61,0L7.384,8.528a.432.432,0,0,1,0-.61l.534-.534a.432.432,0,0,1,.61,0L11.646,10.5a.432.432,0,0,1,0,.61" fill="#1d1d1d"/>
        <path id="Path_1189" data-name="Path 1189" d="M22.618,22.084l-.534.534a.432.432,0,0,1-.61,0L18.356,19.5a.432.432,0,0,1,0-.61l.534-.534a.432.432,0,0,1,.61,0l3.118,3.118a.432.432,0,0,1,0,.61" fill="#1d1d1d"/>
        <path id="Path_1190" data-name="Path 1190" d="M9.879,14.624v.755a.431.431,0,0,1-.432.431H5.038a.431.431,0,0,1-.431-.431v-.755a.432.432,0,0,1,.431-.432H9.447a.433.433,0,0,1,.432.432" fill="#1d1d1d"/>
        <path id="Path_1191" data-name="Path 1191" d="M25.4,14.624v.755a.431.431,0,0,1-.432.431H20.555a.431.431,0,0,1-.431-.431v-.755a.432.432,0,0,1,.431-.432h4.409a.432.432,0,0,1,.432.432" fill="#1d1d1d"/>
        <path id="Path_1192" data-name="Path 1192" d="M11.113,18.357l.534.534a.432.432,0,0,1,0,.61L8.529,22.619a.432.432,0,0,1-.61,0l-.534-.534a.432.432,0,0,1,0-.61L10.5,18.357a.432.432,0,0,1,.61,0" fill="#1d1d1d"/>
        <path id="Path_1193" data-name="Path 1193" d="M22.084,7.385l.534.534a.432.432,0,0,1,0,.61L19.5,11.646a.43.43,0,0,1-.61,0l-.534-.534a.432.432,0,0,1,0-.61l3.118-3.117a.43.43,0,0,1,.61,0" fill="#1d1d1d"/>
      </g>
    </g>
    <g id="Group_1282" data-name="Group 1282">
      <g id="Group_1281" data-name="Group 1281" clip-path="url(#clip-path-2)">
        <path id="Path_1194" data-name="Path 1194" d="M14.865,29.209a14.6,14.6,0,1,1,14.6-14.6,14.6,14.6,0,0,1-14.6,14.6m0-27.343A12.74,12.74,0,1,0,27.6,14.607v0A12.755,12.755,0,0,0,14.865,1.864" fill="#151515"/>
      </g>
    </g>
  </g>
</svg>
