<svg xmlns="http://www.w3.org/2000/svg" xmlns:xlink="http://www.w3.org/1999/xlink" width="45.527" height="45.527" viewBox="0 0 45.527 45.527">
  <defs>
    <clipPath id="clip-path">
      <rect id="Rectangle_206" data-name="Rectangle 206" width="45.527" height="45.527" fill="#272727"/>
    </clipPath>
  </defs>
  <g id="Group_1264" data-name="Group 1264" transform="translate(0 0)">
    <g id="Group_1263" data-name="Group 1263" transform="translate(0 0)" clip-path="url(#clip-path)">
      <path id="Path_1180" data-name="Path 1180" d="M41.571,33.109a8.463,8.463,0,1,1-8.462-8.462,8.462,8.462,0,0,1,8.462,8.462" transform="translate(-10.345 -10.346)" fill="#272727"/>
      <path id="Path_1181" data-name="Path 1181" d="M38.776,11.546H37.124a.945.945,0,0,1-.945-.945V.945A.945.945,0,0,1,37.124,0h1.653a.945.945,0,0,1,.945.945V10.6a.945.945,0,0,1-.945.945" transform="translate(-15.186 0)" fill="#272727"/>
      <path id="Path_1182" data-name="Path 1182" d="M38.776,70.11H37.124a.945.945,0,0,1-.945-.945V59.509a.945.945,0,0,1,.945-.945h1.653a.945.945,0,0,1,.945.945v9.656a.945.945,0,0,1-.945.945" transform="translate(-15.186 -24.582)" fill="#272727"/>
      <path id="Path_1183" data-name="Path 1183" d="M19.615,18.448l-1.169,1.169a.945.945,0,0,1-1.336,0l-6.828-6.828a.945.945,0,0,1,0-1.336l1.169-1.169a.945.945,0,0,1,1.336,0l6.828,6.828a.945.945,0,0,1,0,1.336" transform="translate(-4.2 -4.201)" fill="#272727"/>
      <path id="Path_1184" data-name="Path 1184" d="M61.027,59.859l-1.169,1.169a.946.946,0,0,1-1.337,0L51.694,54.2a.944.944,0,0,1,0-1.336l1.169-1.169a.944.944,0,0,1,1.336,0l6.828,6.828a.946.946,0,0,1,0,1.336" transform="translate(-21.583 -21.583)" fill="#272727"/>
      <path id="Path_1185" data-name="Path 1185" d="M11.546,37.123v1.653a.945.945,0,0,1-.945.945H.945A.945.945,0,0,1,0,38.776V37.123a.945.945,0,0,1,.945-.945H10.6a.945.945,0,0,1,.945.945" transform="translate(0 -15.186)" fill="#272727"/>
      <path id="Path_1186" data-name="Path 1186" d="M70.11,37.123v1.653a.945.945,0,0,1-.945.945H59.509a.945.945,0,0,1-.945-.945V37.123a.945.945,0,0,1,.945-.945h9.656a.945.945,0,0,1,.945.945" transform="translate(-24.582 -15.186)" fill="#272727"/>
      <path id="Path_1187" data-name="Path 1187" d="M18.448,51.695l1.169,1.169a.945.945,0,0,1,0,1.336l-6.828,6.828a.945.945,0,0,1-1.336,0l-1.169-1.169a.945.945,0,0,1,0-1.336l6.828-6.828a.945.945,0,0,1,1.336,0" transform="translate(-4.2 -21.583)" fill="#272727"/>
      <path id="Path_1188" data-name="Path 1188" d="M59.859,10.284l1.169,1.169a.945.945,0,0,1,0,1.336L54.2,19.616a.945.945,0,0,1-1.336,0l-1.169-1.169a.945.945,0,0,1,0-1.336l6.828-6.828a.945.945,0,0,1,1.336,0" transform="translate(-21.583 -4.201)" fill="#272727"/>
    </g>
  </g>
</svg>
